<svg width="50" height="50" viewBox="0 0 50 50" fill="none" xmlns="http://www.w3.org/2000/svg">
<path d="M11.1479 33.9606C10.9204 34.154 10.7397 34.384 10.6164 34.6375C10.4932 34.8909 10.4297 35.1628 10.4297 35.4373C10.4297 35.7119 10.4932 35.9837 10.6164 36.2372C10.7397 36.4907 10.9204 36.7207 11.1479 36.914L23.289 47.3135C23.5147 47.5084 23.7833 47.6632 24.0792 47.7688C24.3751 47.8743 24.6925 47.9287 25.013 47.9287C25.3336 47.9287 25.651 47.8743 25.9469 47.7688C26.2428 47.6632 26.5113 47.5084 26.737 47.3135L38.8781 36.914C39.1057 36.7207 39.2863 36.4907 39.4096 36.2372C39.5329 35.9837 39.5964 35.7119 39.5964 35.4373C39.5964 35.1628 39.5329 34.8909 39.4096 34.6374C39.2863 34.384 39.1057 34.154 38.8781 33.9606C38.6524 33.7657 38.3838 33.6109 38.0879 33.5053C37.792 33.3997 37.4746 33.3454 37.1541 33.3454C36.8335 33.3454 36.5161 33.3997 36.2202 33.5053C35.9243 33.6109 35.6558 33.7657 35.43 33.9606L25.013 42.9041L14.596 33.9606C14.3703 33.7657 14.1017 33.6109 13.8058 33.5053C13.5099 33.3997 13.1925 33.3454 12.872 33.3454C12.5514 33.3454 12.234 33.3997 11.9381 33.5053C11.6422 33.6109 11.3737 33.7657 11.1479 33.9606Z" fill="#A212A8"/>
<path d="M26.7368 30.6468L38.8795 20.2474C39.106 20.0535 39.2856 19.8232 39.4081 19.5699C39.5307 19.3165 39.5937 19.0449 39.5937 18.7707C39.5937 18.2168 39.3368 17.6856 38.8795 17.2939C38.6531 17.1 38.3843 16.9462 38.0884 16.8412C37.7926 16.7363 37.4755 16.6823 37.1553 16.6823C36.5085 16.6823 35.8883 16.9023 35.431 17.2939L25.0125 26.2375L14.594 17.2939C14.3682 17.099 14.0996 16.9443 13.8037 16.8387C13.5077 16.7331 13.1903 16.6787 12.8697 16.6787C12.5491 16.6787 12.2317 16.7331 11.9358 16.8387C11.6398 16.9443 11.3712 17.099 11.1454 17.2939C10.9178 17.4873 10.7371 17.7173 10.6139 17.9708C10.4906 18.2242 10.4271 18.4961 10.4271 18.7707C10.4271 19.0452 10.4906 19.3171 10.6139 19.5705C10.7371 19.824 10.9178 20.054 11.1454 20.2474L23.2882 30.6468C23.514 30.8418 23.7826 30.9965 24.0785 31.1021C24.3745 31.2077 24.6919 31.262 25.0125 31.262C25.3331 31.262 25.6505 31.2077 25.9465 31.1021C26.2424 30.9965 26.511 30.8418 26.7368 30.6468Z" fill="#A212A8" fill-opacity="0.6"/>
<path d="M26.7368 16.0636L38.8795 5.66413C39.106 5.4702 39.2856 5.23998 39.4081 4.9866C39.5307 4.73323 39.5937 4.46166 39.5937 4.18741C39.5937 3.63353 39.3368 3.10234 38.8795 2.71069C38.6531 2.51676 38.3843 2.36293 38.0884 2.25798C37.7926 2.15303 37.4755 2.09901 37.1553 2.09901C36.5085 2.09901 35.8883 2.31904 35.431 2.71069L25.0125 11.6542L14.594 2.71069C14.3682 2.51574 14.0996 2.36101 13.8037 2.25542C13.5077 2.14982 13.1903 2.09546 12.8697 2.09546C12.5491 2.09546 12.2317 2.14982 11.9358 2.25542C11.6398 2.36101 11.3712 2.51574 11.1454 2.71069C10.9178 2.90404 10.7371 3.13408 10.6139 3.38753C10.4906 3.64098 10.4271 3.91284 10.4271 4.18741C10.4271 4.46198 10.4906 4.73383 10.6139 4.98728C10.7371 5.24074 10.9178 5.47077 11.1454 5.66413L23.2882 16.0636C23.514 16.2585 23.7826 16.4132 24.0785 16.5188C24.3745 16.6244 24.6919 16.6788 25.0125 16.6788C25.3331 16.6788 25.6505 16.6244 25.9465 16.5188C26.2424 16.4132 26.511 16.2585 26.7368 16.0636Z" fill="#A212A8" fill-opacity="0.3"/>
</svg>
