<svg width="24" height="24" viewBox="0 0 24 24" fill="none" xmlns="http://www.w3.org/2000/svg">
<g clip-path="url(#clip0_1223_300)">
<path d="M12.7044 3.63605C12.5169 3.44858 12.2626 3.34326 11.9974 3.34326C11.7322 3.34326 11.4779 3.44858 11.2904 3.63605L5.63341 9.29305C5.5379 9.3853 5.46172 9.49564 5.40931 9.61764C5.3569 9.73965 5.32932 9.87087 5.32816 10.0036C5.32701 10.1364 5.35231 10.2681 5.40259 10.391C5.45287 10.5139 5.52713 10.6256 5.62102 10.7194C5.71491 10.8133 5.82656 10.8876 5.94946 10.9379C6.07236 10.9882 6.20404 11.0135 6.33681 11.0123C6.46959 11.0111 6.60081 10.9836 6.72282 10.9311C6.84482 10.8787 6.95517 10.8026 7.04741 10.707L10.9974 6.75705V20C10.9974 20.2653 11.1028 20.5196 11.2903 20.7072C11.4778 20.8947 11.7322 21 11.9974 21C12.2626 21 12.517 20.8947 12.7045 20.7072C12.8921 20.5196 12.9974 20.2653 12.9974 20V6.75705L16.9474 10.707C17.136 10.8892 17.3886 10.99 17.6508 10.9877C17.913 10.9854 18.1638 10.8803 18.3492 10.6949C18.5346 10.5095 18.6398 10.2586 18.6421 9.99645C18.6444 9.73425 18.5436 9.48165 18.3614 9.29305L12.7044 3.63605Z" fill="white"/>
</g>
<defs>
<clipPath id="clip0_1223_300">
<rect width="24" height="24" fill="white"/>
</clipPath>
</defs>
</svg>
