<svg width="18" height="22" viewBox="0 0 18 22" fill="none" xmlns="http://www.w3.org/2000/svg">
<path d="M17.9552 11.1363C17.9552 12.1658 17.9351 13.1957 17.9614 14.2249C17.9841 15.1018 17.9636 15.9787 17.9948 16.8541C18.0076 17.2107 18.0006 17.5633 17.9311 17.9067C17.841 18.3501 17.651 18.7609 17.3416 19.1C16.6705 19.8359 15.8624 20.3884 14.9833 20.8468C14.3975 21.1521 13.7758 21.3583 13.1413 21.5212C12.792 21.6109 12.4277 21.6449 12.07 21.701C11.5889 21.7764 11.1108 21.7592 10.6319 21.7493C10.306 21.7427 9.9816 21.683 9.65757 21.6369C9.44229 21.6061 9.22627 21.5703 9.01428 21.5289C8.67634 21.4626 8.34206 21.3689 8.01474 21.2605C7.36852 21.0467 6.74829 20.7688 6.15955 20.4261C5.44303 20.0091 4.78656 19.5108 4.17695 18.948C3.66253 18.4735 3.15837 17.9884 2.67764 17.4806C1.82162 16.5762 0.976955 15.6609 0.224554 14.6654C0.112151 14.5164 0.056133 14.3626 0.0605266 14.1773C0.067117 13.9093 0.0627234 13.6413 0.0619911 13.3733C0.0568653 11.077 0.0345313 8.78058 0.0264764 6.48421C0.0242796 5.88229 0.0074375 5.27927 0.000480991 4.67662C-0.000251273 4.62793 -0.000251273 4.57923 0.00121325 4.53054C0.0110988 4.21237 0.0202521 4.19553 0.324142 4.08825C1.06666 3.82647 1.79782 3.5354 2.53338 3.25604C2.85521 3.13375 3.17631 3.00853 3.49667 2.88258C3.62702 2.83133 3.73393 2.86171 3.824 2.9646C4.00011 3.16597 4.18061 3.36331 4.35123 3.56908C4.81987 4.13475 5.31928 4.67333 5.79891 5.22911C6.37813 5.8995 6.95808 6.56915 7.53804 7.23844C7.6574 7.3761 7.77749 7.5134 7.90234 7.64631C7.95433 7.70159 8.01181 7.78178 8.10115 7.74114C8.17547 7.70709 8.14289 7.62141 8.14289 7.5588C8.14362 5.57291 8.14032 3.58702 8.14215 1.60076C8.14252 1.1215 8.07186 1.19289 8.55405 1.02301C9.46792 0.700813 10.3796 0.372394 11.2891 0.0384826C11.4849 -0.033279 11.6189 -0.00984664 11.7683 0.152715C12.3267 0.760126 12.903 1.35106 13.4701 1.95042C14.2668 2.79178 15.062 3.63462 15.8562 4.47818C16.2842 4.93292 16.7397 5.36348 17.1226 5.85849C17.4935 6.33849 17.7575 6.86901 17.8831 7.47057C17.9314 7.70086 17.9435 7.9275 17.9439 8.15816C17.9453 9.1511 17.9446 10.1441 17.9446 11.137C17.9486 11.1363 17.9519 11.1363 17.9552 11.1363ZM0.777413 10.6519C0.772287 10.7273 0.767527 10.7632 0.767527 10.7994C0.766429 11.8652 0.766429 12.9314 0.764964 13.9972C0.764598 14.1382 0.819884 14.2586 0.902996 14.3648C1.35627 14.9429 1.82199 15.5119 2.32212 16.049C2.90903 16.6795 3.48789 17.3187 4.12276 17.9038C4.68917 18.4259 5.24019 18.9641 5.88019 19.4002C6.47442 19.8051 7.09831 20.1526 7.77163 20.4074C8.16669 20.5568 8.5676 20.6831 8.97987 20.7834C9.49574 20.909 10.0175 20.9863 10.5432 21.0262C11.4161 21.0925 12.2765 21.0002 13.1259 20.779C13.5851 20.6597 14.0244 20.4964 14.4535 20.3009C15.2678 19.9304 15.9854 19.4189 16.6353 18.8052C17.0578 18.4062 17.272 17.9185 17.2812 17.3473C17.294 16.5433 17.2845 15.7393 17.283 14.9352C17.283 14.8723 17.2944 14.8053 17.2588 14.7306C17.1651 14.8122 17.0827 14.8818 17.0025 14.9543C16.4153 15.487 15.7749 15.9447 15.0749 16.3177C14.5769 16.5832 14.0559 16.7904 13.514 16.9526C12.9817 17.1119 12.4409 17.2279 11.8891 17.2558C11.2883 17.2862 10.686 17.2876 10.083 17.2305C9.31561 17.1576 8.57785 16.9757 7.86719 16.6901C6.77282 16.2504 5.8099 15.5972 4.95168 14.7935C4.32669 14.2081 3.72038 13.6025 3.10784 13.0039C2.99068 12.8897 2.88816 12.7604 2.7688 12.6484C2.34775 12.253 1.94647 11.8381 1.54775 11.4207C1.30611 11.167 1.07252 10.9049 0.777413 10.6519ZM17.216 10.4549C17.145 10.4813 17.1065 10.53 17.0681 10.5761C16.8696 10.8152 16.6419 11.0242 16.416 11.2362C16.0283 11.6002 15.5937 11.9004 15.136 12.1622C14.6084 12.4635 14.0387 12.6663 13.4485 12.8208C13.0077 12.9365 12.5628 13.0292 12.1136 13.0768C11.5882 13.1324 11.0599 13.1767 10.5286 13.1639C9.76119 13.1452 9.02526 12.9893 8.3168 12.7004C7.64788 12.4276 7.04779 12.0358 6.48248 11.5925C5.80294 11.059 5.18601 10.4556 4.59068 9.83101C3.93713 9.14561 3.30519 8.44008 2.68276 7.72612C2.07974 7.0345 1.47636 6.34325 0.872973 5.652C0.846978 5.62197 0.830502 5.57657 0.777047 5.58536C0.773385 5.59854 0.767527 5.61026 0.767527 5.62197C0.765697 6.88915 0.764232 8.15633 0.762401 9.42314C0.762401 9.49307 0.781074 9.55202 0.82977 9.60547C1.02528 9.82112 1.21055 10.0467 1.41302 10.2557C1.98711 10.8492 2.5645 11.4394 3.14702 12.0249C3.62665 12.5067 4.11617 12.9786 4.59983 13.4564C5.22555 14.0748 5.84907 14.6954 6.58829 15.1835C7.09502 15.5181 7.62554 15.8066 8.19268 16.027C8.65803 16.2079 9.13108 16.3518 9.62499 16.4375C10.0138 16.5048 10.4001 16.5722 10.7962 16.5649C11.0339 16.5605 11.2715 16.5645 11.5091 16.5623C11.6248 16.5612 11.7438 16.5704 11.8555 16.5462C12.2044 16.4704 12.5606 16.4441 12.9096 16.3587C13.4426 16.2284 13.9585 16.0596 14.4539 15.8242C15.1543 15.4918 15.7826 15.0546 16.3768 14.5567C16.9447 14.0811 17.2522 13.4985 17.2548 12.7582C17.257 12.0578 17.2555 11.357 17.2537 10.6566C17.2541 10.5922 17.2702 10.5223 17.216 10.4549ZM8.87186 3.02391C8.84147 3.13448 8.85062 3.23151 8.85062 3.32633C8.85135 4.78793 8.85318 6.24915 8.85501 7.71075C8.85538 7.95349 8.90261 8.01061 9.14645 8.03294C9.35954 8.05235 9.56604 8.10361 9.77474 8.14351C10.299 8.2431 10.8252 8.33207 11.3487 8.43752C11.4842 8.46498 11.6178 8.51038 11.7577 8.5188C11.847 8.52429 11.9001 8.50891 11.9243 8.4031C11.9785 8.16695 12.0151 7.92823 12.0627 7.69134C12.0993 7.50901 12.133 7.32521 12.1711 7.14325C12.2135 6.94224 12.2846 6.7178 12.111 6.53693C11.6486 6.05511 11.21 5.55131 10.76 5.05813C10.2855 4.53786 9.81465 4.01466 9.33867 3.49622C9.19369 3.33768 9.06298 3.16304 8.87186 3.02391Z" fill="#040508"/>
</svg>
