<svg width="24" height="24" viewBox="0 0 24 24" fill="none" xmlns="http://www.w3.org/2000/svg">
<path d="M21.5 12C21.5015 13.1854 21.268 14.3594 20.8132 15.4541C20.3583 16.5488 19.6911 17.5425 18.8499 18.3778C18.0156 19.2106 17.0254 19.8708 15.9359 20.3207C14.8463 20.7706 13.6788 21.0014 12.5 21C7.52931 21 3.50001 16.9707 3.50001 12C3.49677 9.69228 4.38322 7.47212 5.97501 5.80126C6.81481 4.91496 7.82666 4.20939 8.94862 3.72772C10.0706 3.24605 11.279 2.99843 12.5 3.00001C13.6788 2.99855 14.8463 3.22938 15.9359 3.6793C17.0254 4.12922 18.0156 4.78941 18.8499 5.62216C19.6911 6.45749 20.3583 7.4512 20.8132 8.5459C21.268 9.64059 21.5015 10.8146 21.5 12Z" stroke="white" stroke-width="2" stroke-linecap="round" stroke-linejoin="round"/>
<path d="M21.4944 11.9998C20.1814 11.9998 16.5589 11.5048 13.3166 12.9282C9.79446 14.4748 7.24431 16.8742 6.13281 18.3659" stroke="white" stroke-width="2" stroke-linecap="round" stroke-linejoin="round"/>
<path d="M9.125 3.6543C10.5335 4.95435 13.607 8.26409 14.75 11.55C15.893 14.8359 16.316 18.876 16.577 20.0257" stroke="white" stroke-width="2" stroke-linecap="round" stroke-linejoin="round"/>
<path d="M3.57031 10.8746C5.27041 10.9772 9.77086 11.0695 12.6509 9.83963C15.5309 8.60978 18.009 6.34763 18.8591 5.62988M4.17601 15.4255C4.96918 17.345 6.39942 18.9328 8.22601 19.9214" stroke="white" stroke-width="2" stroke-linecap="round" stroke-linejoin="round"/>
<path d="M3.50001 12C3.49677 9.69228 4.38322 7.47212 5.97501 5.80126C6.81481 4.91496 7.82666 4.20939 8.94862 3.72772C10.0706 3.24605 11.279 2.99843 12.5 3.00001M16.1 3.74881C17.1251 4.19691 18.0577 4.83221 18.8499 5.62216C19.6911 6.45749 20.3583 7.4512 20.8132 8.5459C21.268 9.64059 21.5015 10.8146 21.5 12C21.5 13.1079 21.2997 14.1694 20.933 15.15M12.5 21C13.6788 21.0014 14.8463 20.7706 15.9359 20.3207C17.0254 19.8708 18.0156 19.2106 18.8499 18.3778" stroke="white" stroke-width="2" stroke-linecap="round" stroke-linejoin="round"/>
</svg>
