<svg width="23" height="22" viewBox="0 0 23 22" fill="none" xmlns="http://www.w3.org/2000/svg">
<path d="M11.5 0C14.4174 0 17.2153 1.15893 19.2782 3.22183C21.3411 5.28473 22.5 8.08262 22.5 11C22.5 13.9174 21.3411 16.7153 19.2782 18.7782C17.2153 20.8411 14.4174 22 11.5 22C8.58262 22 5.78473 20.8411 3.72183 18.7782C1.65893 16.7153 0.5 13.9174 0.5 11C0.5 8.08262 1.65893 5.28473 3.72183 3.22183C5.78473 1.15893 8.58262 0 11.5 0ZM11.5 1.83333C9.20981 1.8305 7.00151 2.68506 5.30979 4.22879C3.61808 5.77252 2.5655 7.89359 2.35925 10.1745C2.15301 12.4554 2.80803 14.7308 4.19539 16.553C5.58275 18.3751 7.60195 19.612 9.8555 20.02V13.9883H7.13667V11.0788H9.85733V9.1465C9.85733 5.9455 11.4102 4.53933 14.0557 4.53933C15.3262 4.53933 15.9953 4.63283 16.3125 4.67683V7.21417H14.5067C13.3828 7.21417 12.9905 8.28483 12.9905 9.49117V11.0807H16.285L15.8377 13.9865H12.9887V20.0457C15.2566 19.6678 17.2999 18.4516 18.7133 16.6382C20.1268 14.8248 20.8073 12.5465 20.62 10.2549C20.4327 7.9633 19.3912 5.82574 17.702 4.26591C16.0128 2.70608 13.7992 1.83786 11.5 1.83333Z" fill="white"/>
</svg>
