<svg width="23" height="28" viewBox="0 0 23 28" fill="none" xmlns="http://www.w3.org/2000/svg">
<path d="M22.7624 14.2753C22.7624 15.5518 22.7375 16.8288 22.7701 18.1049C22.7983 19.1921 22.7729 20.2794 22.8114 21.3648C22.8273 21.8069 22.8187 22.2441 22.7325 22.6699C22.6208 23.2197 22.3852 23.729 22.0016 24.1494C21.1695 25.0618 20.1676 25.7469 19.0776 26.3152C18.3513 26.6938 17.5804 26.9494 16.7937 27.1514C16.3607 27.2626 15.909 27.3048 15.4654 27.3743C14.8689 27.4678 14.2761 27.4465 13.6823 27.4342C13.2783 27.426 12.876 27.3521 12.4743 27.2949C12.2074 27.2567 11.9395 27.2122 11.6767 27.1609C11.2577 27.0788 10.8432 26.9626 10.4374 26.8282C9.63612 26.5631 8.86711 26.2185 8.13714 25.7936C7.24874 25.2765 6.43478 24.6587 5.67894 23.961C5.04112 23.3726 4.41602 22.7711 3.81996 22.1415C2.7586 21.0202 1.71131 19.8853 0.778421 18.651C0.639055 18.4662 0.569599 18.2756 0.575046 18.0459C0.583217 17.7136 0.57777 17.3813 0.576862 17.049C0.570506 14.2017 0.542815 11.3545 0.532828 8.50727C0.530104 7.76096 0.509222 7.01329 0.500596 6.26607C0.499688 6.20569 0.499688 6.14532 0.501504 6.08494C0.513761 5.69045 0.52511 5.66957 0.901898 5.53656C1.82253 5.21197 2.72909 4.85108 3.6411 4.5047C4.04014 4.35308 4.43826 4.19783 4.83548 4.04167C4.99709 3.97811 5.12964 4.01579 5.24132 4.14335C5.45967 4.39303 5.68348 4.63771 5.89502 4.89284C6.47609 5.59421 7.0953 6.26198 7.68999 6.95109C8.40815 7.78229 9.12723 8.61259 9.8463 9.44243C9.9943 9.61312 10.1432 9.78335 10.298 9.94814C10.3625 10.0167 10.4337 10.1161 10.5445 10.0657C10.6367 10.0235 10.5962 9.91727 10.5962 9.83964C10.5972 7.37736 10.5931 4.91508 10.5953 2.45235C10.5958 1.85812 10.5082 1.94664 11.106 1.736C12.2391 1.33652 13.3695 0.929316 14.4971 0.515304C14.74 0.426328 14.9062 0.455382 15.0914 0.65694C15.7837 1.41006 16.4982 2.14275 17.2014 2.88588C18.1892 3.92908 19.1752 4.9741 20.1599 6.02002C20.6905 6.58384 21.2553 7.1177 21.7301 7.73145C22.19 8.32659 22.5173 8.98438 22.673 9.73024C22.7329 10.0158 22.7479 10.2968 22.7483 10.5828C22.7502 11.8139 22.7493 13.0451 22.7493 14.2762C22.7542 14.2753 22.7583 14.2753 22.7624 14.2753ZM1.4639 13.6747C1.45755 13.7682 1.45165 13.8127 1.45165 13.8576C1.45028 15.1791 1.45028 16.501 1.44847 17.8225C1.44801 17.9973 1.51656 18.1467 1.61961 18.2783C2.18162 18.9951 2.75906 19.7006 3.37917 20.3665C4.10687 21.1482 4.82458 21.9408 5.61175 22.6663C6.31403 23.3136 6.99724 23.9809 7.79077 24.5216C8.52755 25.0237 9.3011 25.4545 10.1359 25.7705C10.6258 25.9557 11.1228 26.1123 11.634 26.2367C12.2736 26.3924 12.9205 26.4882 13.5724 26.5376C14.6547 26.6198 15.7215 26.5054 16.7747 26.2312C17.3439 26.0832 17.8887 25.8808 18.4207 25.6384C19.4303 25.1789 20.3201 24.5448 21.1259 23.7839C21.6498 23.2891 21.9153 22.6844 21.9267 21.9763C21.9426 20.9794 21.9308 19.9825 21.9289 18.9856C21.9289 18.9075 21.943 18.8244 21.899 18.7318C21.7828 18.833 21.6806 18.9193 21.5812 19.0092C20.8531 19.6697 20.0591 20.2371 19.1911 20.6997C18.5737 21.0288 17.9277 21.2858 17.2559 21.4869C16.5958 21.6844 15.9253 21.8283 15.2412 21.8628C14.4962 21.9004 13.7495 21.9023 13.0018 21.8314C12.0503 21.7411 11.1356 21.5155 10.2544 21.1614C8.89752 20.6162 7.70361 19.8063 6.63952 18.8099C5.86461 18.084 5.11285 17.3332 4.35337 16.5909C4.2081 16.4493 4.08099 16.2891 3.933 16.1501C3.41094 15.6599 2.9134 15.1455 2.41904 14.628C2.11942 14.3134 1.8298 13.9884 1.4639 13.6747ZM21.8459 13.4305C21.7578 13.4631 21.7101 13.5235 21.6625 13.5807C21.4164 13.8772 21.1341 14.1364 20.854 14.3992C20.3732 14.8505 19.8344 15.2227 19.2669 15.5473C18.6128 15.9209 17.9064 16.1724 17.1746 16.364C16.628 16.5074 16.0765 16.6223 15.5195 16.6813C14.868 16.7503 14.213 16.8052 13.5543 16.7893C12.6028 16.7662 11.6903 16.5728 10.8119 16.2146C9.98249 15.8764 9.23845 15.3907 8.53753 14.8409C7.69498 14.1795 6.93006 13.4314 6.19191 12.6569C5.38159 11.8071 4.59805 10.9323 3.82632 10.0471C3.07864 9.18957 2.33052 8.33249 1.58239 7.47542C1.55016 7.43819 1.52973 7.3819 1.46345 7.3928C1.45891 7.40914 1.45165 7.42367 1.45165 7.43819C1.44938 9.00935 1.44756 10.5805 1.44529 12.1512C1.44529 12.2379 1.46844 12.311 1.52882 12.3773C1.77123 12.6447 2.00094 12.9243 2.25198 13.1835C2.96379 13.9194 3.67969 14.6512 4.40194 15.377C4.99663 15.9745 5.60358 16.5596 6.20326 17.152C6.97908 17.9188 7.75218 18.6882 8.66873 19.2934C9.29701 19.7083 9.9548 20.066 10.658 20.3393C11.235 20.5635 11.8215 20.7419 12.4339 20.8482C12.916 20.9317 13.3949 21.0152 13.8861 21.0061C14.1807 21.0007 14.4754 21.0057 14.77 21.003C14.9134 21.0016 15.061 21.013 15.1994 20.983C15.632 20.889 16.0737 20.8563 16.5064 20.7506C17.1673 20.589 17.807 20.3797 18.4212 20.0878C19.2896 19.6756 20.0686 19.1336 20.8054 18.5162C21.5095 17.9265 21.8908 17.2042 21.894 16.2863C21.8967 15.4179 21.8949 14.549 21.8926 13.6806C21.8931 13.6007 21.9131 13.514 21.8459 13.4305ZM11.5001 4.21689C11.4624 4.35399 11.4738 4.47429 11.4738 4.59186C11.4747 6.40407 11.4769 8.21583 11.4792 10.028C11.4797 10.329 11.5382 10.3998 11.8406 10.4275C12.1048 10.4516 12.3608 10.5151 12.6196 10.5646C13.2696 10.6881 13.922 10.7984 14.5711 10.9291C14.7391 10.9632 14.9048 11.0195 15.0782 11.0299C15.189 11.0367 15.2548 11.0177 15.2848 10.8865C15.352 10.5937 15.3973 10.2977 15.4564 10.004C15.5018 9.7779 15.5435 9.55001 15.5907 9.3244C15.6434 9.07517 15.7315 8.7969 15.5163 8.57264C14.9429 7.97523 14.3991 7.35058 13.8412 6.73909C13.2528 6.09402 12.669 5.44531 12.0789 4.8025C11.8991 4.60594 11.7371 4.3894 11.5001 4.21689Z" fill="#A212A8"/>
</svg>
