<svg width="150" height="38" viewBox="0 0 150 38" fill="none" xmlns="http://www.w3.org/2000/svg">
<g clip-path="url(#clip0_2105_4073)">
<path d="M50.9058 9.49634H45.5523L38.8516 29.0513H43.1923L44.6958 23.9422H51.5661L53.0696 29.0513H57.6066L50.9058 9.49634ZM45.5423 20.9502L46.1443 18.8663C46.442 17.8901 46.7364 16.849 47.0158 15.7696C47.2952 14.6936 47.5597 13.6225 47.7942 12.5814L47.8374 12.4051H48.3513L48.3995 12.5681C48.7022 13.5893 48.9916 14.662 49.261 15.7563C49.5304 16.8457 49.8182 17.8901 50.1175 18.863L50.7196 20.9519H45.5423V20.9502Z" fill="white"/>
<path d="M74.7069 18.4456C74.4275 17.476 74.0217 16.6344 73.4978 15.9442C72.9839 15.264 72.3486 14.7352 71.6035 14.3643C70.8651 13.9917 70.0186 13.8071 69.0889 13.8071C68.2856 13.8071 67.4989 13.9884 66.7456 14.351C65.9822 14.7185 65.287 15.1775 64.675 15.7214L64.6068 15.7846H64.186L63.8584 13.8071H60.4141V35.3162H64.6916V31.3181L64.4904 28.1316L64.9461 28.5673C65.4849 29.0862 66.072 29.492 66.6923 29.7714C68.0827 30.3984 69.6244 30.2953 71.0131 29.63C71.7865 29.2575 72.4916 28.7053 73.102 27.9852C73.719 27.2651 74.218 26.3753 74.5855 25.3375C74.953 24.2997 75.1393 23.0857 75.1393 21.7402C75.1377 20.5295 74.9896 19.4235 74.7069 18.4456ZM69.799 25.5704C69.1671 26.3737 68.3954 26.7844 67.4989 26.7844C67.0632 26.7844 66.6075 26.7013 66.1535 26.54C65.6928 26.3836 65.2288 26.0942 64.7731 25.6835L64.6899 25.6103V18.8181L64.7581 18.7499C65.7078 17.7271 66.6957 17.2082 67.6935 17.2082C69.7042 17.2082 70.7271 18.7549 70.7271 21.8034C70.7287 23.5148 70.4144 24.782 69.799 25.5704Z" fill="white"/>
<path d="M92.5836 18.4456C92.3042 17.476 91.8984 16.6344 91.3745 15.9442C90.8606 15.264 90.2253 14.7352 89.4802 14.3643C88.7418 13.9917 87.8952 13.8071 86.9655 13.8071C86.1623 13.8071 85.3756 13.9884 84.6222 14.351C83.8588 14.7185 83.1587 15.1775 82.5516 15.7214L82.4834 15.7846H82.0627L81.735 13.8071H78.2891V35.2996H82.5666V31.3164L82.3654 28.1299L82.8211 28.5656C83.3599 29.0845 83.947 29.4903 84.5673 29.7697C85.9577 30.3967 87.4994 30.2936 88.8831 29.6284C89.6615 29.2558 90.3666 28.7037 90.977 27.9836C91.594 27.2634 92.093 26.3737 92.4605 25.3359C92.828 24.2981 93.0143 23.084 93.0143 21.7385C93.0143 20.5295 92.8663 19.4235 92.5836 18.4456ZM87.674 25.5704C87.0421 26.3737 86.2704 26.7844 85.3739 26.7844C84.9382 26.7844 84.4825 26.7013 84.0285 26.54C83.5678 26.3836 83.1038 26.0942 82.6481 25.6835L82.5649 25.6103V18.8181L82.6331 18.7499C83.5828 17.7271 84.5707 17.2082 85.5685 17.2082C87.5792 17.2082 88.6021 18.7549 88.6021 21.8034C88.6037 23.5148 88.2911 24.782 87.674 25.5704Z" fill="white"/>
<path d="M100.314 27.3001C100.221 27.3233 100.148 27.3317 100.088 27.3317H99.8567C99.6388 27.3317 99.4443 27.2385 99.2779 27.0489C99.1166 26.8593 99.0318 26.5533 99.0318 26.1143V9.55957H96.75V25.9296C96.75 27.004 96.9496 27.8273 97.3421 28.3778C97.7263 28.9149 98.3832 29.1877 99.2996 29.1877C99.6372 29.1877 99.9199 29.1694 100.143 29.1278C100.319 29.0962 100.475 29.0497 100.615 28.9931L100.314 27.3001Z" fill="white"/>
<path d="M104.042 13.8288V29.1178H106.329V13.8288H104.042ZM106.259 9.97036C105.97 9.71424 105.612 9.58618 105.185 9.58618C104.762 9.58618 104.401 9.71424 104.11 9.97036C103.821 10.2265 103.68 10.5541 103.68 10.9765C103.68 11.3807 103.824 11.71 104.114 11.9728C104.403 12.2322 104.761 12.3686 105.183 12.3686C105.606 12.3686 105.966 12.2322 106.258 11.9728C106.547 11.7083 106.688 11.3807 106.688 10.9765C106.69 10.5541 106.549 10.2265 106.259 9.97036Z" fill="white"/>
<path d="M123.019 18.1496C122.77 17.2382 122.394 16.4465 121.903 15.7979C121.413 15.1493 120.802 14.6454 120.089 14.2978C119.372 13.9452 118.529 13.7706 117.594 13.7706C116.774 13.7706 115.964 13.9702 115.188 14.3577C114.406 14.7518 113.669 15.2458 113.002 15.8295L112.808 16.0008L112.873 13.0388V9.55957H110.586V29.1777H112.395L112.613 27.3466H112.849L112.881 27.3782C113.525 27.962 114.218 28.411 114.95 28.7204C115.682 29.0297 116.394 29.1877 117.07 29.1877C117.909 29.1877 118.719 29.0114 119.477 28.6638C120.235 28.3112 120.912 27.789 121.491 27.1138C122.075 26.4286 122.542 25.587 122.885 24.6008C123.227 23.6146 123.399 22.4853 123.399 21.2363C123.399 20.1071 123.269 19.066 123.019 18.1496ZM120.696 23.7826C120.478 24.5326 120.172 25.1663 119.788 25.6752C119.399 26.1891 118.931 26.5916 118.399 26.8743C117.862 27.162 117.27 27.305 116.64 27.305C116.136 27.305 115.552 27.1853 114.895 26.9441C114.243 26.703 113.576 26.2922 112.914 25.7085L112.873 25.6769V17.7471L112.909 17.7155C114.376 16.3501 115.747 15.6599 116.977 15.6599C117.686 15.6599 118.311 15.7996 118.825 16.0723C119.344 16.3451 119.77 16.7343 120.097 17.2299C120.422 17.7205 120.658 18.3176 120.806 19.0028C120.949 19.688 121.024 20.4463 121.024 21.2663C121.025 22.1943 120.914 23.0425 120.696 23.7826Z" fill="white"/>
<path d="M132.903 13.7838C132.07 13.7838 131.297 14.0566 130.593 14.5888C129.885 15.1309 129.269 15.871 128.769 16.7924L128.737 16.8523H128.47L128.252 13.8287H126.391V29.0512H128.672L128.682 19.3336C129.201 18.0514 129.817 17.135 130.515 16.6111C131.219 16.0872 131.909 15.8245 132.566 15.8245C132.875 15.8245 133.145 15.8428 133.352 15.8843C133.529 15.9209 133.723 15.9725 133.921 16.0373L134.36 14.0416C133.931 13.872 133.441 13.7838 132.903 13.7838Z" fill="white"/>
<path d="M147.738 13.8288L145.032 22.1278C144.824 22.7947 144.609 23.5048 144.406 24.2416C144.199 24.9883 143.976 25.7118 143.743 26.3937L143.72 26.4735H143.42L143.392 26.3937C143.159 25.6752 142.908 24.9468 142.657 24.2316C142.391 23.4932 142.145 22.793 141.917 22.1261L138.835 13.8271H136.422L142.499 28.8734L142.138 30.0342C141.82 30.9839 141.375 31.7772 140.811 32.4025C140.232 33.0362 139.479 33.3571 138.569 33.3571C138.374 33.3571 138.161 33.3339 137.944 33.2773L137.493 33.1642L137.042 34.9787C137.26 35.0585 137.493 35.125 137.744 35.1666C138.028 35.2182 138.351 35.2415 138.697 35.2415C139.45 35.2415 140.119 35.1101 140.688 34.8473C141.262 34.5845 141.777 34.222 142.223 33.7663C142.674 33.3106 143.066 32.7601 143.399 32.1314C143.731 31.4928 144.034 30.7926 144.303 30.0542L149.996 13.8288H147.738Z" fill="white"/>
<path d="M16.1154 33.2225L11.116 30.3353L10.2579 32.1847L16.1137 35.5658L30.8323 27.0191L30.8024 10.2066L16.1154 1.64819L1.40343 10.0336L1.39844 26.8627L6.62396 29.8414L15.9923 8.83619L14.399 9.87897L6.30796 27.5629L4.43363 26.4736C4.38374 26.4486 4.32719 26.4287 4.27231 26.4037L4.28229 26.3887L3.4607 25.9148V11.2993L16.1154 3.99153L28.77 11.2993V25.9148L16.1154 33.2225Z" fill="white"/>
<path d="M16.1173 0L0 9.30348V27.9105L2.7009 29.4721C2.70589 29.4721 2.70589 29.4721 2.70589 29.4721L6.40467 31.6092L7.48902 31.378L8.44199 31.1818L12.7262 21.8584C12.7461 21.8683 12.7711 21.8783 12.791 21.8883L22.4321 26.3089L24.6757 25.8798L25.0083 23.6213L17.9534 9.80242L16.2404 8.7796L6.72732 30.1523L1.17416 26.9924L1.16418 9.89223L16.1173 1.37041L30.9839 10.1001L30.949 27.0839L16.114 35.6573L10.2149 32.2146L8.35052 32.7268L16.1173 37.2123L32.2296 27.9088V9.30348L16.1173 0ZM16.2636 14.1265L16.2686 14.1165L19.9824 21.3794L14.233 18.7433C14.208 18.7334 14.1881 18.7234 14.1631 18.7134L16.2636 14.1265ZM13.8288 19.4834L22.0613 23.3202C21.2048 21.6322 20.3649 19.9158 19.5234 18.2178C18.6419 16.4233 17.7388 14.6404 16.8723 12.8409L16.2736 14.1032L16.8674 12.7046C16.8674 12.7046 18.7616 16.3435 19.6947 18.133C20.606 19.9175 22.5319 23.7676 22.5319 23.7676L13.7423 19.6647L13.8288 19.4834Z" fill="white"/>
<path d="M16.2646 14.1381L16.2696 14.1282L19.9817 21.3777C19.9817 21.3777 14.1857 18.7217 14.1607 18.7117L13.8281 19.4834L22.0606 23.3202C21.2041 21.6321 20.3675 19.9291 19.526 18.2294C18.6445 16.4349 17.7414 14.652 16.875 12.8525L16.2762 14.1148L16.2646 14.1381Z" fill="white"/>
<path opacity="0.2" d="M0 9.30349L1.16418 9.89223L7.74681 6.14024L6.67077 5.45337L0 9.30349Z" fill="white"/>
<path opacity="0.22" d="M1.40625 10.0336L3.46353 11.2992V17.7471L1.40625 17.3197V10.0336Z" fill="white"/>
<path opacity="0.21" d="M16.1172 0V1.37041L19.4168 3.30794L19.7145 2.07723L16.1172 0Z" fill="white"/>
<path opacity="0.11" d="M16.1155 1.64819V3.99153L10.5623 7.19802L9.94531 5.16569L16.1155 1.64819Z" fill="white"/>
<path opacity="0.37" d="M30.8041 10.2048L28.7734 11.2992V17.8768L30.834 17.5675L30.8041 10.2048Z" fill="white"/>
<path opacity="0.27" d="M28.7711 25.9148L30.8317 27.0174L24.768 30.5399L23.1016 29.1895L28.7711 25.9148Z" fill="white"/>
<path opacity="0.5" d="M16.1138 35.5657L16.1171 33.2224L12.2071 30.9639L11.8828 33.1209L16.1138 35.5657Z" fill="white"/>
<path opacity="0.48" d="M6.3125 27.5629L6.63016 29.8397L9.92479 22.4521L9.14313 21.3794L6.3125 27.5629Z" fill="white"/>
<path opacity="0.78" d="M1.39844 26.8628L3.4607 25.9148L4.76792 26.6682L3.32433 27.9588L1.39844 26.8628Z" fill="white"/>
<path opacity="0.19" d="M0 27.9105L1.17416 26.9924L4.76982 29.0397L3.46261 29.9095L0 27.9105Z" fill="white"/>
<path opacity="0.22" d="M8.43881 31.1818L6.72413 30.1524L5.62648 29.5287L4.41406 30.46L6.40315 31.6092L8.43881 31.1818Z" fill="white"/>
<path opacity="0.22" d="M16.1183 37.2139L16.115 35.6573L10.2159 32.2146L8.35156 32.7285L16.1183 37.2139Z" fill="white"/>
<path opacity="0.69" d="M32.2284 27.9104L30.9478 27.0839L26.5156 29.6451L27.6748 30.5398L32.2284 27.9104Z" fill="white"/>
<path opacity="0.51" d="M32.23 9.30347L30.9844 10.1001V18.2361L32.23 17.629V9.30347Z" fill="white"/>
<path d="M19.9854 21.3794L22.0643 23.3219L15.5 20.2701V19.3221L19.9854 21.3794Z" fill="white"/>
<path d="M13.7444 19.6647L12.7266 21.8567L22.4325 26.3072L22.7751 23.9056L13.7444 19.6647Z" fill="white"/>
<path opacity="0.46" d="M22.6399 23.9888L16.8672 12.7045L17.9515 9.80237L25.0065 23.6212L22.6399 23.9888Z" fill="white"/>
</g>
<defs>
<clipPath id="clip0_2105_4073">
<rect width="150" height="37.2139" fill="white"/>
</clipPath>
</defs>
</svg>
