<svg width="149" height="40" viewBox="0 0 149 40" fill="none" xmlns="http://www.w3.org/2000/svg">
<g clip-path="url(#clip0_2107_4113)">
<path d="M28.5663 16.7744H17.7427H7.11048C7.00632 16.7744 6.92188 16.8617 6.92188 16.9686V31.3982C6.92188 31.5052 7.00632 31.5925 7.11048 31.5925H12.3238C12.428 31.5925 12.5124 31.5052 12.5124 31.3982V27.2996C12.5124 24.2003 14.9783 21.6866 18.0185 21.6866C20.887 21.6866 23.2122 24.0568 23.2122 26.9815V31.3982C23.2122 31.5052 23.2966 31.5925 23.4008 31.5925H28.6141C28.7183 31.5925 28.8027 31.5052 28.8027 31.3982V16.7744H28.5663Z" fill="white"/>
<path d="M10.2972 7.03745H6.91922V10.2325L0 16.7745H6.91922H17.74V16.5183V0L10.2972 7.03745Z" fill="white"/>
<path d="M28.8051 10.4605V7.03745H25.185L17.7422 0V16.5183V16.7745H28.5658H28.8051H35.485L28.8051 10.4605Z" fill="white"/>
<path d="M12.485 31.8965H6.84375V32.8451H12.485V31.8965Z" fill="white"/>
<path d="M28.8053 31.8965H23.1641V32.8451H28.8053V31.8965Z" fill="white"/>
</g>
<path d="M132.781 40C132.231 40 131.692 39.9541 131.164 39.8624C130.66 39.7707 130.213 39.6216 129.823 39.4152V35.1843C130.144 35.276 130.522 35.3563 130.958 35.4251C131.394 35.4939 131.795 35.5283 132.162 35.5283C133.171 35.5283 133.893 35.2875 134.329 34.8059C134.765 34.3473 135.12 33.8198 135.395 33.2236L136.668 30.2998L136.599 34.5995L128.344 13.6511H133.882L139.351 28.5455H137.287L142.757 13.6511H148.295L140.245 34.1867C139.741 35.4709 139.122 36.5487 138.388 37.4202C137.654 38.2916 136.817 38.9337 135.877 39.3464C134.96 39.7822 133.928 40 132.781 40Z" fill="white"/>
<path d="M120.922 32.4324V6.39307H126.082V32.4324H120.922Z" fill="white"/>
<path d="M88.9766 32.4324V13.6511H93.7923V18.226L93.2763 17.4692C93.5515 16.0245 94.2165 14.9582 95.2714 14.2702C96.3263 13.5823 97.5875 13.2383 99.0552 13.2383C100.615 13.2383 101.979 13.6396 103.149 14.4422C104.341 15.2219 105.086 16.2768 105.384 17.6068L103.905 17.7444C104.524 16.208 105.407 15.0728 106.554 14.339C107.701 13.6052 109.042 13.2383 110.579 13.2383C111.932 13.2383 113.124 13.5364 114.156 14.1326C115.211 14.7289 116.036 15.5659 116.633 16.6437C117.229 17.6986 117.527 18.9369 117.527 20.3587V32.4324H112.367V21.4594C112.367 20.7256 112.23 20.095 111.954 19.5675C111.702 19.0401 111.335 18.6273 110.854 18.3292C110.372 18.0311 109.787 17.882 109.099 17.882C108.434 17.882 107.85 18.0311 107.345 18.3292C106.864 18.6273 106.485 19.0401 106.21 19.5675C105.958 20.095 105.832 20.7256 105.832 21.4594V32.4324H100.672V21.4594C100.672 20.7256 100.534 20.095 100.259 19.5675C100.007 19.0401 99.6399 18.6273 99.1584 18.3292C98.6768 18.0311 98.092 17.882 97.4041 17.882C96.7391 17.882 96.1543 18.0311 95.6498 18.3292C95.1682 18.6273 94.7898 19.0401 94.5146 19.5675C94.2624 20.095 94.1363 20.7256 94.1363 21.4594V32.4324H88.9766Z" fill="white"/>
<path d="M75.8911 32.8452C74.0336 32.8452 72.3367 32.4209 70.8002 31.5724C69.2867 30.7239 68.0713 29.5659 67.154 28.0982C66.2597 26.6076 65.8125 24.9221 65.8125 23.0417C65.8125 21.1384 66.2597 19.4529 67.154 17.9852C68.0713 16.5176 69.2867 15.3595 70.8002 14.511C72.3367 13.6625 74.0336 13.2383 75.8911 13.2383C77.7486 13.2383 79.4341 13.6625 80.9476 14.511C82.4611 15.3595 83.6651 16.5176 84.5594 17.9852C85.4767 19.4529 85.9353 21.1384 85.9353 23.0417C85.9353 24.9221 85.4767 26.6076 84.5594 28.0982C83.6651 29.5659 82.4611 30.7239 80.9476 31.5724C79.4341 32.4209 77.7486 32.8452 75.8911 32.8452ZM75.8911 28.2014C76.8313 28.2014 77.6454 27.9836 78.3334 27.5479C79.0443 27.1122 79.5946 26.5045 79.9845 25.7248C80.3973 24.9451 80.6037 24.0507 80.6037 23.0417C80.6037 22.0327 80.3973 21.1498 79.9845 20.3931C79.5946 19.6134 79.0443 19.0057 78.3334 18.57C77.6454 18.1113 76.8313 17.882 75.8911 17.882C74.9509 17.882 74.1254 18.1113 73.4145 18.57C72.7036 19.0057 72.1417 19.6134 71.729 20.3931C71.3391 21.1498 71.1442 22.0327 71.1442 23.0417C71.1442 24.0507 71.3391 24.9451 71.729 25.7248C72.1417 26.5045 72.7036 27.1122 73.4145 27.5479C74.1254 27.9836 74.9509 28.2014 75.8911 28.2014Z" fill="white"/>
<path d="M41.75 32.4324V6.80591H47.0817V17.8821H57.0571V6.80591H62.3888V32.4324H57.0571V22.5258H47.0817V32.4324H41.75Z" fill="white"/>
<defs>
<clipPath id="clip0_2107_4113">
<rect width="35.4828" height="32.8452" fill="white"/>
</clipPath>
</defs>
</svg>
