<svg width="178" height="40" viewBox="0 0 178 40" fill="none" xmlns="http://www.w3.org/2000/svg">
<g clip-path="url(#clip0_2105_4053)">
<path d="M57.6852 5.55485C56.6811 3.21338 55.5737 2.39631 53.0605 2.34143H50.2979L50.876 3.71948L40.4219 30.8353H42.1805L51.7522 5.85972L57.9347 20.4329L58.1841 20.9451L61.1719 27.6219C62.1759 29.9634 63.2834 30.8353 65.7966 30.8353H68.5592L57.6852 5.55485Z" fill="white"/>
<path d="M64.2969 11.8109H67.2238C68.9824 11.8109 69.6091 12.2987 70.315 13.8963L75.6516 26.006L81.1829 11.8109H82.266L74.9153 30.8231H74.7875C73.534 30.8231 72.822 31.0914 71.818 28.8292L64.2969 11.8109Z" fill="white"/>
<path d="M98.298 15.5853C98.298 17.7012 94.367 18.4268 91.0689 19.8231C88.6166 20.8414 86.4991 22.1951 86.5416 24.7804C86.5416 28.8475 91.3184 29.6524 94.0263 27.7865C95.7605 26.6402 97.1966 24.2255 97.9998 21.5548H98.2554V27.9085C98.2554 29.3475 98.803 29.9024 99.9044 29.6036C99.3994 30.2804 98.0424 30.8353 96.7767 30.8353C94.9573 30.8353 94.0263 29.6036 94.0263 27.7865C92.5476 28.9755 89.7546 30.8353 86.5842 30.8353C83.7912 30.8353 81.6797 28.7987 81.6797 26.1768C81.6797 21.4755 87.6004 21.1341 91.2758 19.2255C92.7545 18.4634 94.0689 17.0243 94.0689 15.2438C94.0689 13.6341 92.8397 12.2377 90.4726 12.2377C87.4301 12.2377 85.6958 14.6524 84.3815 17.2377V13.8475C86.2435 12.6585 88.2698 11.8109 91.0202 11.8109C94.6652 11.8109 98.298 13.1646 98.298 15.5853Z" fill="white"/>
<path d="M107.135 26.9817C107.135 28.25 107.348 29.2256 108.955 29.2256C109.63 29.2256 110.391 28.9268 110.86 28.5488C109.716 29.9451 107.902 30.8353 106.253 30.8353C104.221 30.8353 102.493 29.6463 102.493 26.811V13.8841C102.493 12.6951 102.493 12.6951 101.391 12.6951H100.375V11.8475C102.407 11.8475 102.487 12.2256 102.487 9.81095V5.97559L103.162 6.189C104.811 6.73778 107.135 7.12193 107.135 9.70729V11.8536H110.866V12.7012H107.135V26.9817Z" fill="white"/>
<path d="M113.061 11.8109H113.949C115.683 11.8109 117.71 12.1646 117.71 14.8719V30.8353H116.779C115.044 30.8353 113.055 30.4816 113.055 27.7743V11.8109H113.061Z" fill="white"/>
<path d="M115.43 5.55481C116.824 5.55481 117.712 6.44505 117.712 7.84139C117.712 9.19505 116.824 10.128 115.43 10.128C114.079 10.128 113.148 9.19505 113.148 7.84139C113.148 6.44505 114.079 5.55481 115.43 5.55481Z" fill="white"/>
<path d="M102.49 5.55481H103.379C105.113 5.55481 107.139 5.90847 107.139 8.61579V24.5792H106.208C104.474 24.5792 102.484 24.2255 102.484 21.5182V5.55481H102.49Z" fill="white"/>
<path d="M134.032 27.8719L132.888 28.8475C131.026 30.4999 129.334 30.8841 127.77 30.8414C122.951 30.8414 120.328 27.1097 120.328 22.5792C120.328 17.4512 123.839 11.817 130.606 11.817C133.484 11.817 133.904 12.7499 138.681 12.2377V39.9999H137.792C136.015 39.9999 134.032 39.6585 134.032 37.0731V27.8719ZM134.032 27.3231V15.0304C134.032 13.378 132.681 12.2743 131.074 12.2743C126.675 12.2743 125.409 19.3902 125.409 22.7377C125.409 27.8231 128.245 32.189 133.107 28.1219L134.032 27.3231Z" fill="white"/>
<path d="M141.733 11.8109H142.621C144.355 11.8109 146.382 12.1524 146.382 14.7377V25.3292C146.424 28.4207 147.988 29.6951 149.637 29.6951C150.945 29.6951 152.175 28.9755 153.568 27.7865L154.116 27.3231V11.8109H155.004C156.781 11.8109 158.765 12.1524 158.765 14.7377V30.8353H157.834C156.185 30.8353 154.323 30.1158 154.152 27.8719L153.647 28.256C151.785 29.8231 149.801 30.8414 147.264 30.8414C143.753 30.8414 141.769 29.0609 141.727 25.378V11.8109H141.733Z" fill="white"/>
<path d="M165.411 20.9207C166.147 24.4816 168.734 27.4877 172.762 27.4877C174.667 27.4877 176.486 26.5548 177.581 24.689C176.316 28.8414 173.054 30.7926 169.713 30.7926C165.271 30.7926 160.75 27.3597 160.75 21.2987C160.75 14.6463 165.484 11.8048 169.969 11.8048C173.504 11.8048 177.587 14.4694 177.952 18.8963C178.025 19.756 178.001 20.5182 177.94 20.9085L165.411 20.9207ZM173.425 20.0609C173.888 19.256 173.973 17.1219 173.778 16.006C173.413 13.878 171.959 12.2377 169.805 12.2377C167.62 12.2377 165.198 13.9938 165.198 18.3902C165.198 18.8048 165.198 19.4694 165.283 20.067H173.425V20.0609Z" fill="white"/>
<path d="M45.4992 20.9027L61.2656 20.9027L61.2656 20.0551L45.4992 20.0551L45.4992 20.9027Z" fill="white"/>
<path d="M18.2961 5.90854C18.2961 2.91142 15.8715 0.481988 12.8809 0.481926C9.89023 0.481926 7.46546 2.91138 7.46546 5.90854C7.46547 8.90568 9.89024 11.3351 12.8809 11.3351V11.8171L12.7287 11.8152C9.59306 11.7356 7.0657 9.20307 6.98625 6.06102L6.98438 5.90854C6.98438 2.64535 9.62441 0 12.8809 0L13.0329 0.00188252C16.2191 0.082721 18.7772 2.69631 18.7772 5.90854L18.7753 6.06102C18.6946 9.25369 16.0865 11.817 12.8809 11.8171V11.3351C15.8715 11.3351 18.2961 8.90565 18.2961 5.90854Z" fill="white"/>
<path d="M20.8843 9.7135L35.0807 30.9635L29.8354 30.9879C28.8375 30.994 27.9065 30.494 27.3466 29.6647L16.7891 13.9086L20.8843 9.7135Z" fill="white"/>
<path d="M20.8839 9.7135L0 31.1525L6.35888 31.1403C7.47853 31.1403 8.55559 30.683 9.33447 29.8781L24.1759 14.6403L20.8839 9.7135Z" fill="white"/>
<path d="M18.774 5.90847C18.774 9.17067 16.1331 11.817 12.8776 11.817C11.4963 11.817 10.2306 11.3414 9.22656 10.5487C9.82898 10.7316 10.4679 10.8292 11.1312 10.8292C14.764 10.8292 17.7091 7.87799 17.7091 4.23774C17.7091 3.47555 17.5813 2.74384 17.344 2.06091C18.2385 3.0853 18.774 4.43286 18.774 5.90847Z" fill="white"/>
</g>
<defs>
<clipPath id="clip0_2105_4053">
<rect width="178" height="40" fill="white"/>
</clipPath>
</defs>
</svg>
