<svg width="410" height="160" viewBox="0 0 410 160" fill="none" xmlns="http://www.w3.org/2000/svg">
<g clip-path="url(#clip0_1247_667)">
<g filter="url(#filter0_f_1247_667)">
<path d="M295 109.74C295 156.828 254.929 195 205.5 195C156.071 195 116 156.828 116 109.74C116 62.6529 169.197 42 218.627 42C292.613 42 295 62.6529 295 109.74Z" fill="#A212A8" fill-opacity="0.6"/>
</g>
<path d="M46 89C46 80.7157 52.7157 74 61 74H116C124.284 74 131 80.7157 131 89V159H46V89Z" fill="white" fill-opacity="0.1"/>
<path d="M45.75 89C45.75 80.5777 52.5777 73.75 61 73.75H116C124.422 73.75 131.25 80.5777 131.25 89H130.75C130.75 80.8538 124.146 74.25 116 74.25H61C52.8538 74.25 46.25 80.8538 46.25 89H45.75ZM131 159H46H131ZM45.75 159V89C45.75 80.5777 52.5777 73.75 61 73.75V74.25C52.8538 74.25 46.25 80.8538 46.25 89V159H45.75ZM116 73.75C124.422 73.75 131.25 80.5777 131.25 89V159H130.75V89C130.75 80.8538 124.146 74.25 116 74.25V73.75Z" fill="url(#paint0_radial_1247_667)"/>
<path d="M161 44C161 35.7157 167.716 29 176 29H231C239.284 29 246 35.7157 246 44V159H161V44Z" fill="#D21B9A"/>
<path d="M160.75 44C160.75 35.5777 167.578 28.75 176 28.75H231C239.422 28.75 246.25 35.5777 246.25 44H245.75C245.75 35.8538 239.146 29.25 231 29.25H176C167.854 29.25 161.25 35.8538 161.25 44H160.75ZM246 159H161H246ZM160.75 159V44C160.75 35.5777 167.578 28.75 176 28.75V29.25C167.854 29.25 161.25 35.8538 161.25 44V159H160.75ZM231 28.75C239.422 28.75 246.25 35.5777 246.25 44V159H245.75V44C245.75 35.8538 239.146 29.25 231 29.25V28.75Z" fill="url(#paint1_radial_1247_667)"/>
<path d="M276 119C276 110.716 282.716 104 291 104H346C354.284 104 361 110.716 361 119V159H276V119Z" fill="white" fill-opacity="0.1"/>
<path d="M275.75 119C275.75 110.578 282.578 103.75 291 103.75H346C354.422 103.75 361.25 110.578 361.25 119H360.75C360.75 110.854 354.146 104.25 346 104.25H291C282.854 104.25 276.25 110.854 276.25 119H275.75ZM361 159H276H361ZM275.75 159V119C275.75 110.578 282.578 103.75 291 103.75V104.25C282.854 104.25 276.25 110.854 276.25 119V159H275.75ZM346 103.75C354.422 103.75 361.25 110.578 361.25 119V159H360.75V119C360.75 110.854 354.146 104.25 346 104.25V103.75Z" fill="url(#paint2_radial_1247_667)"/>
<path d="M69.87 87.44H71.89C72.25 87.44 72.58 87.4733 72.88 87.54C73.18 87.6067 73.4333 87.7167 73.64 87.87C73.8533 88.0167 74.0167 88.2133 74.13 88.46C74.25 88.7067 74.31 89.01 74.31 89.37C74.31 89.7167 74.25 90.0167 74.13 90.27C74.0167 90.5233 73.8533 90.7333 73.64 90.9C73.4267 91.0667 73.17 91.1933 72.87 91.28C72.5767 91.36 72.25 91.4 71.89 91.4H70.71V94H69.87V87.44ZM71.78 90.72C72.36 90.72 72.7867 90.6133 73.06 90.4C73.34 90.18 73.48 89.8367 73.48 89.37C73.48 88.8967 73.3367 88.57 73.05 88.39C72.77 88.2033 72.3467 88.11 71.78 88.11H70.71V90.72H71.78ZM75.5329 89.14H76.2129L76.2829 90.02H76.3129C76.4796 89.7133 76.6796 89.47 76.9129 89.29C77.1529 89.11 77.4129 89.02 77.6929 89.02C77.8862 89.02 78.0596 89.0533 78.2129 89.12L78.0529 89.84C77.9729 89.8133 77.8996 89.7933 77.8329 89.78C77.7662 89.7667 77.6829 89.76 77.5829 89.76C77.3762 89.76 77.1596 89.8433 76.9329 90.01C76.7129 90.1767 76.5196 90.4667 76.3529 90.88V94H75.5329V89.14ZM78.542 91.58C78.542 91.18 78.602 90.8233 78.722 90.51C78.8487 90.19 79.012 89.92 79.212 89.7C79.4187 89.48 79.652 89.3133 79.912 89.2C80.172 89.08 80.442 89.02 80.722 89.02C81.0287 89.02 81.302 89.0733 81.542 89.18C81.7887 89.2867 81.992 89.44 82.152 89.64C82.3187 89.84 82.4454 90.08 82.532 90.36C82.6187 90.64 82.662 90.9533 82.662 91.3C82.662 91.48 82.652 91.63 82.632 91.75H79.352C79.3854 92.2767 79.5454 92.6933 79.832 93C80.1254 93.3067 80.5054 93.46 80.972 93.46C81.2054 93.46 81.4187 93.4267 81.612 93.36C81.812 93.2867 82.002 93.1933 82.182 93.08L82.472 93.62C82.2587 93.7533 82.022 93.87 81.762 93.97C81.502 94.07 81.2054 94.12 80.872 94.12C80.5454 94.12 80.2387 94.0633 79.952 93.95C79.672 93.83 79.4254 93.6633 79.212 93.45C79.0054 93.23 78.842 92.9633 78.722 92.65C78.602 92.3367 78.542 91.98 78.542 91.58ZM81.942 91.21C81.942 90.71 81.8354 90.33 81.622 90.07C81.4154 89.8033 81.122 89.67 80.742 89.67C80.5687 89.67 80.402 89.7067 80.242 89.78C80.0887 89.8467 79.9487 89.9467 79.822 90.08C79.6954 90.2067 79.5887 90.3667 79.502 90.56C79.422 90.7467 79.3687 90.9633 79.342 91.21H81.942ZM83.863 89.14H84.543L84.613 89.84H84.643C84.8563 89.6067 85.0863 89.4133 85.333 89.26C85.5863 89.1 85.8596 89.02 86.153 89.02C86.5263 89.02 86.8163 89.1033 87.023 89.27C87.2363 89.43 87.393 89.6567 87.493 89.95C87.7463 89.67 87.9996 89.4467 88.253 89.28C88.513 89.1067 88.793 89.02 89.093 89.02C89.593 89.02 89.963 89.18 90.203 89.5C90.4496 89.82 90.573 90.2933 90.573 90.92V94H89.753V91.03C89.753 90.57 89.6796 90.24 89.533 90.04C89.3863 89.8333 89.1596 89.73 88.853 89.73C88.4863 89.73 88.0796 89.98 87.633 90.48V94H86.813V91.03C86.813 90.57 86.7396 90.24 86.593 90.04C86.4463 89.8333 86.2163 89.73 85.903 89.73C85.5363 89.73 85.1296 89.98 84.683 90.48V94H83.863V89.14ZM92.574 88.14C92.414 88.14 92.2773 88.09 92.164 87.99C92.0573 87.89 92.004 87.7633 92.004 87.61C92.004 87.45 92.0573 87.3233 92.164 87.23C92.2773 87.13 92.414 87.08 92.574 87.08C92.734 87.08 92.8673 87.13 92.974 87.23C93.0873 87.3233 93.144 87.45 93.144 87.61C93.144 87.7633 93.0873 87.89 92.974 87.99C92.8673 88.09 92.734 88.14 92.574 88.14ZM92.154 89.14H92.974V94H92.154V89.14ZM94.5449 89.14H95.3749V92.11C95.3749 92.57 95.4449 92.9033 95.5849 93.11C95.7316 93.31 95.9649 93.41 96.2849 93.41C96.5383 93.41 96.7616 93.3467 96.9549 93.22C97.1483 93.0867 97.3616 92.8767 97.5949 92.59V89.14H98.4149V94H97.7349L97.6649 93.24H97.6349C97.4083 93.5067 97.1683 93.72 96.9149 93.88C96.6683 94.04 96.3749 94.12 96.0349 94.12C95.5149 94.12 95.1349 93.96 94.8949 93.64C94.6616 93.32 94.5449 92.8467 94.5449 92.22V89.14ZM100.054 89.14H100.734L100.804 89.84H100.834C101.048 89.6067 101.278 89.4133 101.524 89.26C101.778 89.1 102.051 89.02 102.344 89.02C102.718 89.02 103.008 89.1033 103.214 89.27C103.428 89.43 103.584 89.6567 103.684 89.95C103.938 89.67 104.191 89.4467 104.444 89.28C104.704 89.1067 104.984 89.02 105.284 89.02C105.784 89.02 106.154 89.18 106.394 89.5C106.641 89.82 106.764 90.2933 106.764 90.92V94H105.944V91.03C105.944 90.57 105.871 90.24 105.724 90.04C105.578 89.8333 105.351 89.73 105.044 89.73C104.678 89.73 104.271 89.98 103.824 90.48V94H103.004V91.03C103.004 90.57 102.931 90.24 102.784 90.04C102.638 89.8333 102.408 89.73 102.094 89.73C101.728 89.73 101.321 89.98 100.874 90.48V94H100.054V89.14Z" fill="#D9D9D9"/>
<path d="M178.82 45.46H179.98V52H178.82V45.46ZM181.523 47.09H182.473L182.553 47.75H182.593C182.813 47.5367 183.05 47.3533 183.303 47.2C183.563 47.0467 183.863 46.97 184.203 46.97C184.73 46.97 185.113 47.14 185.353 47.48C185.593 47.8133 185.713 48.2933 185.713 48.92V52H184.563V49.07C184.563 48.6633 184.503 48.3767 184.383 48.21C184.263 48.0433 184.066 47.96 183.793 47.96C183.58 47.96 183.39 48.0133 183.223 48.12C183.063 48.22 182.88 48.37 182.673 48.57V52H181.523V47.09ZM187.289 48H186.589V47.14L187.349 47.09L187.489 45.75H188.449V47.09H189.699V48H188.449V50.34C188.449 50.9133 188.679 51.2 189.139 51.2C189.225 51.2 189.312 51.19 189.399 51.17C189.492 51.15 189.575 51.1233 189.649 51.09L189.849 51.94C189.715 51.9867 189.562 52.0267 189.389 52.06C189.222 52.1 189.042 52.12 188.849 52.12C188.562 52.12 188.319 52.0767 188.119 51.99C187.925 51.9033 187.765 51.7833 187.639 51.63C187.519 51.47 187.429 51.2833 187.369 51.07C187.315 50.85 187.289 50.6067 187.289 50.34V48ZM190.314 49.55C190.314 49.15 190.378 48.79 190.504 48.47C190.631 48.15 190.798 47.88 191.004 47.66C191.218 47.44 191.461 47.27 191.734 47.15C192.008 47.03 192.288 46.97 192.574 46.97C192.908 46.97 193.201 47.0267 193.454 47.14C193.708 47.2533 193.918 47.4133 194.084 47.62C194.258 47.8267 194.388 48.0733 194.474 48.36C194.561 48.6467 194.604 48.96 194.604 49.3C194.604 49.5267 194.588 49.7067 194.554 49.84H191.434C191.488 50.2867 191.641 50.63 191.894 50.87C192.154 51.11 192.484 51.23 192.884 51.23C193.098 51.23 193.294 51.2 193.474 51.14C193.661 51.0733 193.844 50.9833 194.024 50.87L194.414 51.59C194.181 51.7433 193.921 51.87 193.634 51.97C193.348 52.07 193.048 52.12 192.734 52.12C192.394 52.12 192.078 52.0633 191.784 51.95C191.491 51.83 191.234 51.66 191.014 51.44C190.794 51.22 190.621 50.9533 190.494 50.64C190.374 50.32 190.314 49.9567 190.314 49.55ZM193.604 49.11C193.604 48.7167 193.521 48.41 193.354 48.19C193.194 47.97 192.944 47.86 192.604 47.86C192.311 47.86 192.054 47.9667 191.834 48.18C191.614 48.3867 191.478 48.6967 191.424 49.11H193.604ZM195.703 47.09H196.653L196.733 47.96H196.773C196.946 47.64 197.156 47.3967 197.403 47.23C197.649 47.0567 197.903 46.97 198.163 46.97C198.396 46.97 198.583 47.0033 198.723 47.07L198.523 48.07C198.436 48.0433 198.356 48.0233 198.283 48.01C198.209 47.9967 198.119 47.99 198.013 47.99C197.819 47.99 197.616 48.0667 197.403 48.22C197.189 48.3667 197.006 48.6267 196.853 49V52H195.703V47.09ZM199.385 50.7C199.605 50.8733 199.822 51.01 200.035 51.11C200.255 51.2033 200.492 51.25 200.745 51.25C201.012 51.25 201.209 51.1967 201.335 51.09C201.462 50.9767 201.525 50.8333 201.525 50.66C201.525 50.56 201.495 50.4733 201.435 50.4C201.375 50.32 201.295 50.25 201.195 50.19C201.095 50.13 200.982 50.0767 200.855 50.03C200.729 49.9767 200.602 49.9233 200.475 49.87C200.315 49.81 200.152 49.74 199.985 49.66C199.819 49.58 199.669 49.4833 199.535 49.37C199.409 49.2567 199.302 49.1267 199.215 48.98C199.135 48.8267 199.095 48.6467 199.095 48.44C199.095 48.0067 199.255 47.6533 199.575 47.38C199.895 47.1067 200.332 46.97 200.885 46.97C201.225 46.97 201.532 47.03 201.805 47.15C202.079 47.27 202.315 47.4067 202.515 47.56L201.985 48.26C201.812 48.1333 201.635 48.0333 201.455 47.96C201.282 47.88 201.099 47.84 200.905 47.84C200.659 47.84 200.475 47.8933 200.355 48C200.242 48.1 200.185 48.2267 200.185 48.38C200.185 48.4733 200.212 48.5567 200.265 48.63C200.325 48.6967 200.402 48.76 200.495 48.82C200.589 48.8733 200.695 48.9233 200.815 48.97C200.942 49.0167 201.072 49.0633 201.205 49.11C201.372 49.17 201.539 49.24 201.705 49.32C201.872 49.3933 202.022 49.4867 202.155 49.6C202.295 49.7133 202.405 49.8533 202.485 50.02C202.572 50.18 202.615 50.3733 202.615 50.6C202.615 50.8133 202.572 51.0133 202.485 51.2C202.405 51.38 202.285 51.54 202.125 51.68C201.965 51.8133 201.765 51.92 201.525 52C201.285 52.08 201.012 52.12 200.705 52.12C200.365 52.12 200.029 52.0567 199.695 51.93C199.369 51.7967 199.085 51.6333 198.845 51.44L199.385 50.7ZM203.322 49.55C203.322 49.15 203.385 48.79 203.512 48.47C203.639 48.15 203.805 47.88 204.012 47.66C204.225 47.44 204.469 47.27 204.742 47.15C205.015 47.03 205.295 46.97 205.582 46.97C205.915 46.97 206.209 47.0267 206.462 47.14C206.715 47.2533 206.925 47.4133 207.092 47.62C207.265 47.8267 207.395 48.0733 207.482 48.36C207.569 48.6467 207.612 48.96 207.612 49.3C207.612 49.5267 207.595 49.7067 207.562 49.84H204.442C204.495 50.2867 204.649 50.63 204.902 50.87C205.162 51.11 205.492 51.23 205.892 51.23C206.105 51.23 206.302 51.2 206.482 51.14C206.669 51.0733 206.852 50.9833 207.032 50.87L207.422 51.59C207.189 51.7433 206.929 51.87 206.642 51.97C206.355 52.07 206.055 52.12 205.742 52.12C205.402 52.12 205.085 52.0633 204.792 51.95C204.499 51.83 204.242 51.66 204.022 51.44C203.802 51.22 203.629 50.9533 203.502 50.64C203.382 50.32 203.322 49.9567 203.322 49.55ZM206.612 49.11C206.612 48.7167 206.529 48.41 206.362 48.19C206.202 47.97 205.952 47.86 205.612 47.86C205.319 47.86 205.062 47.9667 204.842 48.18C204.622 48.3867 204.485 48.6967 204.432 49.11H206.612ZM208.39 49.55C208.39 49.1433 208.457 48.78 208.59 48.46C208.724 48.14 208.904 47.87 209.13 47.65C209.357 47.43 209.617 47.2633 209.91 47.15C210.21 47.03 210.524 46.97 210.85 46.97C211.17 46.97 211.447 47.0267 211.68 47.14C211.92 47.2467 212.124 47.38 212.29 47.54L211.74 48.27C211.607 48.1567 211.474 48.07 211.34 48.01C211.207 47.9433 211.064 47.91 210.91 47.91C210.51 47.91 210.187 48.06 209.94 48.36C209.694 48.6533 209.57 49.05 209.57 49.55C209.57 50.0433 209.69 50.44 209.93 50.74C210.177 51.0333 210.494 51.18 210.88 51.18C211.08 51.18 211.264 51.14 211.43 51.06C211.604 50.9733 211.757 50.8733 211.89 50.76L212.37 51.49C212.137 51.6967 211.88 51.8533 211.6 51.96C211.32 52.0667 211.04 52.12 210.76 52.12C210.427 52.12 210.114 52.0633 209.82 51.95C209.534 51.8367 209.284 51.67 209.07 51.45C208.857 51.23 208.69 50.96 208.57 50.64C208.45 50.32 208.39 49.9567 208.39 49.55ZM213.5 48H212.8V47.14L213.56 47.09L213.7 45.75H214.66V47.09H215.91V48H214.66V50.34C214.66 50.9133 214.89 51.2 215.35 51.2C215.436 51.2 215.523 51.19 215.61 51.17C215.703 51.15 215.786 51.1233 215.86 51.09L216.06 51.94C215.926 51.9867 215.773 52.0267 215.6 52.06C215.433 52.1 215.253 52.12 215.06 52.12C214.773 52.12 214.53 52.0767 214.33 51.99C214.136 51.9033 213.976 51.7833 213.85 51.63C213.73 51.47 213.64 51.2833 213.58 51.07C213.526 50.85 213.5 50.6067 213.5 50.34V48ZM217.523 46.23C217.316 46.23 217.146 46.17 217.013 46.05C216.88 45.93 216.813 45.7733 216.813 45.58C216.813 45.3867 216.88 45.23 217.013 45.11C217.146 44.9833 217.316 44.92 217.523 44.92C217.73 44.92 217.9 44.9833 218.033 45.11C218.166 45.23 218.233 45.3867 218.233 45.58C218.233 45.7733 218.166 45.93 218.033 46.05C217.9 46.17 217.73 46.23 217.523 46.23ZM216.943 47.09H218.093V52H216.943V47.09ZM219.24 49.55C219.24 49.1433 219.303 48.78 219.43 48.46C219.557 48.14 219.727 47.87 219.94 47.65C220.16 47.43 220.41 47.2633 220.69 47.15C220.97 47.03 221.263 46.97 221.57 46.97C221.877 46.97 222.17 47.03 222.45 47.15C222.737 47.2633 222.987 47.43 223.2 47.65C223.413 47.87 223.583 48.14 223.71 48.46C223.843 48.78 223.91 49.1433 223.91 49.55C223.91 49.9567 223.843 50.32 223.71 50.64C223.583 50.96 223.413 51.23 223.2 51.45C222.987 51.67 222.737 51.8367 222.45 51.95C222.17 52.0633 221.877 52.12 221.57 52.12C221.263 52.12 220.97 52.0633 220.69 51.95C220.41 51.8367 220.16 51.67 219.94 51.45C219.727 51.23 219.557 50.96 219.43 50.64C219.303 50.32 219.24 49.9567 219.24 49.55ZM220.42 49.55C220.42 50.0433 220.52 50.44 220.72 50.74C220.927 51.0333 221.21 51.18 221.57 51.18C221.93 51.18 222.213 51.0333 222.42 50.74C222.627 50.44 222.73 50.0433 222.73 49.55C222.73 49.05 222.627 48.6533 222.42 48.36C222.213 48.06 221.93 47.91 221.57 47.91C221.21 47.91 220.927 48.06 220.72 48.36C220.52 48.6533 220.42 49.05 220.42 49.55ZM225.048 47.09H225.998L226.078 47.75H226.118C226.338 47.5367 226.575 47.3533 226.828 47.2C227.088 47.0467 227.388 46.97 227.728 46.97C228.255 46.97 228.638 47.14 228.878 47.48C229.118 47.8133 229.238 48.2933 229.238 48.92V52H228.088V49.07C228.088 48.6633 228.028 48.3767 227.908 48.21C227.788 48.0433 227.592 47.96 227.318 47.96C227.105 47.96 226.915 48.0133 226.748 48.12C226.588 48.22 226.405 48.37 226.198 48.57V52H225.048V47.09Z" fill="white"/>
<path d="M299.87 117.44H300.71V123.29H303.57V124H299.87V117.44ZM304.157 121.58C304.157 121.173 304.217 120.813 304.337 120.5C304.464 120.18 304.631 119.91 304.837 119.69C305.044 119.47 305.281 119.303 305.547 119.19C305.821 119.077 306.107 119.02 306.407 119.02C306.707 119.02 306.991 119.077 307.257 119.19C307.531 119.303 307.771 119.47 307.977 119.69C308.184 119.91 308.347 120.18 308.467 120.5C308.594 120.813 308.657 121.173 308.657 121.58C308.657 121.98 308.594 122.34 308.467 122.66C308.347 122.973 308.184 123.24 307.977 123.46C307.771 123.673 307.531 123.837 307.257 123.95C306.991 124.063 306.707 124.12 306.407 124.12C306.107 124.12 305.821 124.063 305.547 123.95C305.281 123.837 305.044 123.673 304.837 123.46C304.631 123.24 304.464 122.973 304.337 122.66C304.217 122.34 304.157 121.98 304.157 121.58ZM305.007 121.58C305.007 121.86 305.041 122.113 305.107 122.34C305.174 122.567 305.267 122.763 305.387 122.93C305.514 123.09 305.664 123.217 305.837 123.31C306.011 123.397 306.201 123.44 306.407 123.44C306.614 123.44 306.804 123.397 306.977 123.31C307.151 123.217 307.297 123.09 307.417 122.93C307.544 122.763 307.641 122.567 307.707 122.34C307.774 122.113 307.807 121.86 307.807 121.58C307.807 121.3 307.774 121.047 307.707 120.82C307.641 120.587 307.544 120.387 307.417 120.22C307.297 120.053 307.151 119.927 306.977 119.84C306.804 119.747 306.614 119.7 306.407 119.7C306.201 119.7 306.011 119.747 305.837 119.84C305.664 119.927 305.514 120.053 305.387 120.22C305.267 120.387 305.174 120.587 305.107 120.82C305.041 121.047 305.007 121.3 305.007 121.58ZM309.318 119.14H310.158L310.878 121.95C310.931 122.183 310.981 122.41 311.028 122.63C311.075 122.85 311.121 123.073 311.168 123.3H311.208C311.261 123.073 311.315 122.85 311.368 122.63C311.421 122.403 311.478 122.177 311.538 121.95L312.288 119.14H313.088L313.848 121.95C313.908 122.183 313.965 122.41 314.018 122.63C314.078 122.85 314.135 123.073 314.188 123.3H314.228C314.281 123.073 314.331 122.85 314.378 122.63C314.425 122.41 314.475 122.183 314.528 121.95L315.238 119.14H316.018L314.718 124H313.718L313.018 121.39C312.958 121.157 312.901 120.927 312.848 120.7C312.801 120.473 312.748 120.237 312.688 119.99H312.648C312.595 120.237 312.541 120.477 312.488 120.71C312.435 120.937 312.375 121.167 312.308 121.4L311.628 124H310.668L309.318 119.14ZM319.147 117.44H321.167C321.527 117.44 321.857 117.473 322.157 117.54C322.457 117.607 322.711 117.717 322.917 117.87C323.131 118.017 323.294 118.213 323.407 118.46C323.527 118.707 323.587 119.01 323.587 119.37C323.587 119.717 323.527 120.017 323.407 120.27C323.294 120.523 323.131 120.733 322.917 120.9C322.704 121.067 322.447 121.193 322.147 121.28C321.854 121.36 321.527 121.4 321.167 121.4H319.987V124H319.147V117.44ZM321.057 120.72C321.637 120.72 322.064 120.613 322.337 120.4C322.617 120.18 322.757 119.837 322.757 119.37C322.757 118.897 322.614 118.57 322.327 118.39C322.047 118.203 321.624 118.11 321.057 118.11H319.987V120.72H321.057ZM324.81 119.14H325.49L325.56 120.02H325.59C325.757 119.713 325.957 119.47 326.19 119.29C326.43 119.11 326.69 119.02 326.97 119.02C327.164 119.02 327.337 119.053 327.49 119.12L327.33 119.84C327.25 119.813 327.177 119.793 327.11 119.78C327.044 119.767 326.96 119.76 326.86 119.76C326.654 119.76 326.437 119.843 326.21 120.01C325.99 120.177 325.797 120.467 325.63 120.88V124H324.81V119.14ZM328.697 118.14C328.537 118.14 328.4 118.09 328.287 117.99C328.18 117.89 328.127 117.763 328.127 117.61C328.127 117.45 328.18 117.323 328.287 117.23C328.4 117.13 328.537 117.08 328.697 117.08C328.857 117.08 328.99 117.13 329.097 117.23C329.21 117.323 329.267 117.45 329.267 117.61C329.267 117.763 329.21 117.89 329.097 117.99C328.99 118.09 328.857 118.14 328.697 118.14ZM328.277 119.14H329.097V124H328.277V119.14ZM330.378 121.58C330.378 121.173 330.441 120.813 330.568 120.5C330.695 120.18 330.865 119.91 331.078 119.69C331.291 119.47 331.538 119.303 331.818 119.19C332.105 119.077 332.405 119.02 332.718 119.02C333.038 119.02 333.311 119.08 333.538 119.2C333.771 119.313 333.971 119.447 334.138 119.6L333.728 120.13C333.581 120.003 333.428 119.9 333.268 119.82C333.115 119.74 332.941 119.7 332.748 119.7C332.528 119.7 332.325 119.747 332.138 119.84C331.951 119.927 331.791 120.053 331.658 120.22C331.525 120.387 331.418 120.587 331.338 120.82C331.265 121.047 331.228 121.3 331.228 121.58C331.228 121.86 331.265 122.113 331.338 122.34C331.411 122.567 331.511 122.763 331.638 122.93C331.771 123.09 331.931 123.217 332.118 123.31C332.305 123.397 332.508 123.44 332.728 123.44C332.961 123.44 333.171 123.393 333.358 123.3C333.551 123.2 333.721 123.083 333.868 122.95L334.238 123.49C334.018 123.683 333.771 123.837 333.498 123.95C333.231 124.063 332.951 124.12 332.658 124.12C332.338 124.12 332.038 124.063 331.758 123.95C331.478 123.837 331.235 123.673 331.028 123.46C330.828 123.24 330.668 122.973 330.548 122.66C330.435 122.34 330.378 121.98 330.378 121.58ZM334.724 121.58C334.724 121.18 334.784 120.823 334.904 120.51C335.03 120.19 335.194 119.92 335.394 119.7C335.6 119.48 335.834 119.313 336.094 119.2C336.354 119.08 336.624 119.02 336.904 119.02C337.21 119.02 337.484 119.073 337.724 119.18C337.97 119.287 338.174 119.44 338.334 119.64C338.5 119.84 338.627 120.08 338.714 120.36C338.8 120.64 338.844 120.953 338.844 121.3C338.844 121.48 338.834 121.63 338.814 121.75H335.534C335.567 122.277 335.727 122.693 336.014 123C336.307 123.307 336.687 123.46 337.154 123.46C337.387 123.46 337.6 123.427 337.794 123.36C337.994 123.287 338.184 123.193 338.364 123.08L338.654 123.62C338.44 123.753 338.204 123.87 337.944 123.97C337.684 124.07 337.387 124.12 337.054 124.12C336.727 124.12 336.42 124.063 336.134 123.95C335.854 123.83 335.607 123.663 335.394 123.45C335.187 123.23 335.024 122.963 334.904 122.65C334.784 122.337 334.724 121.98 334.724 121.58ZM338.124 121.21C338.124 120.71 338.017 120.33 337.804 120.07C337.597 119.803 337.304 119.67 336.924 119.67C336.75 119.67 336.584 119.707 336.424 119.78C336.27 119.847 336.13 119.947 336.004 120.08C335.877 120.207 335.77 120.367 335.684 120.56C335.604 120.747 335.55 120.963 335.524 121.21H338.124Z" fill="#D9D9D9"/>
<path d="M89 74L89 64C89 61.2386 91.2386 59 94 59L161 59" stroke="#8D8D8D" stroke-width="1.5" stroke-dasharray="2.5 2.5"/>
<path d="M319 104V94C319 91.2386 316.761 89 314 89H246" stroke="#8D8D8D" stroke-width="1.5" stroke-dasharray="2.5 2.5"/>
<path d="M0 0H410V140C410 151.046 401.046 160 390 160H20C8.95431 160 0 151.046 0 140V0Z" fill="url(#paint3_linear_1247_667)"/>
</g>
<defs>
<filter id="filter0_f_1247_667" x="46" y="-28" width="319" height="293" filterUnits="userSpaceOnUse" color-interpolation-filters="sRGB">
<feFlood flood-opacity="0" result="BackgroundImageFix"/>
<feBlend mode="normal" in="SourceGraphic" in2="BackgroundImageFix" result="shape"/>
<feGaussianBlur stdDeviation="35" result="effect1_foregroundBlur_1247_667"/>
</filter>
<radialGradient id="paint0_radial_1247_667" cx="0" cy="0" r="1" gradientUnits="userSpaceOnUse" gradientTransform="translate(88.5 116.5) scale(42.5)">
<stop stop-color="#D9D9D9" stop-opacity="0.8"/>
<stop offset="1" stop-color="#737373" stop-opacity="0.5"/>
</radialGradient>
<radialGradient id="paint1_radial_1247_667" cx="0" cy="0" r="1" gradientUnits="userSpaceOnUse" gradientTransform="translate(203.5 94) rotate(90) scale(65 42.5)">
<stop stop-color="#D9D9D9" stop-opacity="0.9"/>
<stop offset="1" stop-color="#8D8D8D" stop-opacity="0.9"/>
</radialGradient>
<radialGradient id="paint2_radial_1247_667" cx="0" cy="0" r="1" gradientUnits="userSpaceOnUse" gradientTransform="translate(318.5 131.5) scale(42.5 27.5)">
<stop stop-color="#D9D9D9" stop-opacity="0.8"/>
<stop offset="1" stop-color="#737373" stop-opacity="0.5"/>
</radialGradient>
<linearGradient id="paint3_linear_1247_667" x1="205" y1="103.2" x2="205" y2="160" gradientUnits="userSpaceOnUse">
<stop stop-color="#121316" stop-opacity="0"/>
<stop offset="1" stop-color="#121316"/>
</linearGradient>
<clipPath id="clip0_1247_667">
<rect width="410" height="160" fill="white"/>
</clipPath>
</defs>
</svg>
