<svg width="410" height="160" viewBox="0 0 410 160" fill="none" xmlns="http://www.w3.org/2000/svg">
<path d="M307.5 44.75C326.968 44.75 342.75 60.532 342.75 80V159.25H65.25V80C65.25 60.532 81.032 44.75 100.5 44.75H307.5Z" fill="#D9D9D9" fill-opacity="0.1" stroke="url(#paint0_linear_1247_611)" stroke-width="0.5"/>
<rect x="291.5" y="30" width="12" height="30" rx="6" fill="#D21B9A"/>
<rect x="98.5" y="30" width="12" height="30" rx="6" fill="#D21B9A"/>
<g filter="url(#filter0_f_1247_611)">
<circle cx="309" cy="126.5" r="19.5" fill="#A212A8" fill-opacity="0.8"/>
</g>
<g clip-path="url(#clip0_1247_611)">
<rect x="86.5" y="115" width="25" height="25" rx="2" fill="white" fill-opacity="0.1"/>
<rect x="121.5" y="115" width="25" height="25" rx="2" fill="white" fill-opacity="0.1"/>
<rect x="156.5" y="115" width="25" height="25" rx="2" fill="white" fill-opacity="0.1"/>
<rect x="191.5" y="115" width="25" height="25" rx="2" fill="white" fill-opacity="0.1"/>
<rect x="226.5" y="115" width="25" height="25" rx="2" fill="white" fill-opacity="0.1"/>
<rect x="261.5" y="115" width="25" height="25" rx="2" fill="white" fill-opacity="0.1"/>
<rect x="296.5" y="115" width="25" height="25" rx="5" fill="#D21B9A"/>
<path d="M315.053 124.808L307.745 132.122L303.938 128.308L304.553 127.692L307.745 130.878L314.438 124.192L315.053 124.808Z" fill="white"/>
<rect x="86.5" y="150" width="25" height="25" rx="2" fill="white" fill-opacity="0.1"/>
<rect x="121.5" y="150" width="25" height="25" rx="2" fill="white" fill-opacity="0.1"/>
<rect x="156.5" y="150" width="25" height="25" rx="2" fill="white" fill-opacity="0.1"/>
<rect x="191.5" y="150" width="25" height="25" rx="2" fill="white" fill-opacity="0.1"/>
<rect x="226.5" y="150" width="25" height="25" rx="2" fill="white" fill-opacity="0.1"/>
<rect x="261.5" y="150" width="25" height="25" rx="2" fill="white" fill-opacity="0.1"/>
<rect x="296.5" y="150" width="25" height="25" rx="2" fill="white" fill-opacity="0.1"/>
<rect x="121.5" y="80" width="25" height="25" rx="2" fill="white" fill-opacity="0.1"/>
<rect x="156.5" y="80" width="25" height="25" rx="2" fill="white" fill-opacity="0.1"/>
<rect x="191.5" y="80" width="25" height="25" rx="5" fill="#D9D9D9"/>
<rect x="226.5" y="80" width="25" height="25" rx="2" fill="white" fill-opacity="0.1"/>
<rect x="261.5" y="80" width="25" height="25" rx="2" fill="white" fill-opacity="0.1"/>
<rect x="296.5" y="80" width="25" height="25" rx="2" fill="white" fill-opacity="0.1"/>
</g>
<path d="M0 0H410V140C410 151.046 401.046 160 390 160H20C8.95431 160 0 151.046 0 140V0Z" fill="url(#paint1_linear_1247_611)"/>
<defs>
<filter id="filter0_f_1247_611" x="209.5" y="27" width="199" height="199" filterUnits="userSpaceOnUse" color-interpolation-filters="sRGB">
<feFlood flood-opacity="0" result="BackgroundImageFix"/>
<feBlend mode="normal" in="SourceGraphic" in2="BackgroundImageFix" result="shape"/>
<feGaussianBlur stdDeviation="40" result="effect1_foregroundBlur_1247_611"/>
</filter>
<linearGradient id="paint0_linear_1247_611" x1="342.5" y1="102" x2="68.4739" y2="102" gradientUnits="userSpaceOnUse">
<stop stop-color="#D21B9A"/>
<stop offset="0.30978" stop-color="#040508"/>
<stop offset="0.594983" stop-color="#373038"/>
<stop offset="0.820304" stop-color="#E7C6DD"/>
<stop offset="1" stop-color="#EBEBEB" stop-opacity="0.5"/>
</linearGradient>
<linearGradient id="paint1_linear_1247_611" x1="205" y1="103.2" x2="205" y2="160" gradientUnits="userSpaceOnUse">
<stop stop-color="#121316" stop-opacity="0"/>
<stop offset="1" stop-color="#121316"/>
</linearGradient>
<clipPath id="clip0_1247_611">
<rect width="277" height="79" fill="white" transform="translate(65.5 80)"/>
</clipPath>
</defs>
</svg>
