<svg width="410" height="160" viewBox="0 0 410 160" fill="none" xmlns="http://www.w3.org/2000/svg">
<path d="M87.5 71C87.5 72.933 89.067 74.5 91 74.5C92.933 74.5 94.5 72.933 94.5 71H87.5ZM91 53.2222V49.7222H87.5V53.2222H91ZM129.609 53.2222V56.7222H133.109V53.2222H129.609ZM129.609 31V27.5H126.109V31H129.609ZM182.524 31H186.024V27.5H182.524V31ZM182.524 53.2222H179.024V56.7222H182.524V53.2222ZM239 53.2222V56.7222H242.5V53.2222H239ZM91 71H94.5V53.2222H91H87.5V71H91ZM91 53.2222V56.7222H129.609V53.2222V49.7222H91V53.2222ZM129.609 53.2222H133.109V31H129.609H126.109V53.2222H129.609ZM129.609 31V34.5H182.524V31V27.5H129.609V31ZM182.524 31H179.024V53.2222H182.524H186.024V31H182.524ZM182.524 53.2222V56.7222H239V53.2222V49.7222H182.524V53.2222ZM239 53.2222H242.5V31H239H235.5V53.2222H239Z" fill="white" fill-opacity="0.1"/>
<path d="M87.5 89C87.5 87.067 89.067 85.5 91 85.5C92.933 85.5 94.5 87.067 94.5 89H87.5ZM91 101.267V104.767H87.5V101.267H91ZM156.663 101.267V97.7667H160.163V101.267H156.663ZM156.663 116.6V120.1H153.163V116.6H156.663ZM209.283 116.6V113.1H212.783V116.6H209.283ZM209.283 135V138.5H205.783V135H209.283ZM268.199 135H271.699V138.5H268.199V135ZM268.199 101.267H264.699V97.7667H268.199V101.267ZM305.978 101.267V97.7667H309.478V101.267H305.978ZM305.978 116.6V120.1H302.478V116.6H305.978ZM91 89H94.5V101.267H91H87.5V89H91ZM91 101.267V97.7667H156.663V101.267V104.767H91V101.267ZM156.663 101.267H160.163V116.6H156.663H153.163V101.267H156.663ZM156.663 116.6V113.1H209.283V116.6V120.1H156.663V116.6ZM209.283 116.6H212.783V135H209.283H205.783V116.6H209.283ZM209.283 135V131.5H268.199V135V138.5H209.283V135ZM268.199 135H264.699V101.267H268.199H271.699V135H268.199ZM268.199 101.267V97.7667H305.978V101.267V104.767H268.199V101.267ZM305.978 101.267H309.478V116.6H305.978H302.478V101.267H305.978ZM305.978 116.6V113.1H355V116.6V120.1H305.978V116.6Z" fill="white" fill-opacity="0.1"/>
<path d="M346 77.5V82.5H62C60.6193 82.5 59.5 81.3807 59.5 80C59.5 78.6193 60.6193 77.5 62 77.5H346Z" fill="url(#paint0_linear_1247_651)"/>
<rect x="33" y="67" width="45" height="27" rx="5" fill="#222222"/>
<path d="M44.08 82.284C44.36 82.58 44.688 82.82 45.064 83.004C45.44 83.18 45.836 83.268 46.252 83.268C46.772 83.268 47.176 83.152 47.464 82.92C47.752 82.68 47.896 82.368 47.896 81.984C47.896 81.784 47.86 81.616 47.788 81.48C47.724 81.336 47.632 81.216 47.512 81.12C47.392 81.016 47.252 80.924 47.092 80.844C46.932 80.764 46.76 80.68 46.576 80.592L45.448 80.1C45.264 80.02 45.076 79.924 44.884 79.812C44.7 79.7 44.528 79.564 44.368 79.404C44.216 79.244 44.092 79.056 43.996 78.84C43.9 78.616 43.852 78.36 43.852 78.072C43.852 77.776 43.912 77.5 44.032 77.244C44.16 76.988 44.336 76.768 44.56 76.584C44.784 76.392 45.044 76.244 45.34 76.14C45.644 76.036 45.976 75.984 46.336 75.984C46.808 75.984 47.24 76.076 47.632 76.26C48.032 76.436 48.372 76.668 48.652 76.956L48.124 77.604C47.884 77.372 47.616 77.192 47.32 77.064C47.024 76.928 46.696 76.86 46.336 76.86C45.888 76.86 45.528 76.964 45.256 77.172C44.992 77.372 44.86 77.652 44.86 78.012C44.86 78.204 44.9 78.368 44.98 78.504C45.06 78.632 45.16 78.748 45.28 78.852C45.408 78.948 45.548 79.036 45.7 79.116C45.86 79.188 46.016 79.256 46.168 79.32L47.296 79.8C47.52 79.896 47.732 80.008 47.932 80.136C48.132 80.256 48.304 80.4 48.448 80.568C48.592 80.728 48.704 80.92 48.784 81.144C48.872 81.36 48.916 81.612 48.916 81.9C48.916 82.212 48.852 82.504 48.724 82.776C48.604 83.048 48.428 83.288 48.196 83.496C47.964 83.696 47.68 83.856 47.344 83.976C47.016 84.088 46.644 84.144 46.228 84.144C45.676 84.144 45.164 84.04 44.692 83.832C44.228 83.624 43.824 83.34 43.48 82.98L44.08 82.284ZM50.5036 78.972H49.6396V78.228L50.5516 78.168L50.6716 76.536H51.4996V78.168H53.0716V78.972H51.4996V82.212C51.4996 82.572 51.5636 82.852 51.6916 83.052C51.8276 83.244 52.0636 83.34 52.3996 83.34C52.5036 83.34 52.6156 83.324 52.7356 83.292C52.8556 83.26 52.9636 83.224 53.0596 83.184L53.2516 83.928C53.0916 83.984 52.9156 84.032 52.7236 84.072C52.5396 84.12 52.3556 84.144 52.1716 84.144C51.8596 84.144 51.5956 84.096 51.3796 84C51.1716 83.904 50.9996 83.772 50.8636 83.604C50.7356 83.436 50.6436 83.232 50.5876 82.992C50.5316 82.752 50.5036 82.488 50.5036 82.2V78.972ZM53.8913 82.488C53.8913 81.848 54.1753 81.36 54.7433 81.024C55.3193 80.68 56.2313 80.44 57.4793 80.304C57.4793 80.12 57.4593 79.94 57.4193 79.764C57.3873 79.588 57.3233 79.432 57.2273 79.296C57.1393 79.16 57.0193 79.052 56.8673 78.972C56.7153 78.884 56.5193 78.84 56.2793 78.84C55.9353 78.84 55.6153 78.904 55.3193 79.032C55.0313 79.16 54.7713 79.304 54.5393 79.464L54.1433 78.78C54.4153 78.604 54.7473 78.436 55.1393 78.276C55.5313 78.108 55.9633 78.024 56.4353 78.024C57.1473 78.024 57.6633 78.244 57.9833 78.684C58.3033 79.116 58.4633 79.696 58.4633 80.424V84H57.6473L57.5633 83.304H57.5393C57.2593 83.536 56.9553 83.736 56.6273 83.904C56.3073 84.064 55.9673 84.144 55.6073 84.144C55.1113 84.144 54.6993 84 54.3713 83.712C54.0513 83.424 53.8913 83.016 53.8913 82.488ZM54.8633 82.416C54.8633 82.752 54.9593 82.992 55.1513 83.136C55.3513 83.28 55.5953 83.352 55.8833 83.352C56.1633 83.352 56.4273 83.288 56.6753 83.16C56.9313 83.024 57.1993 82.828 57.4793 82.572V80.952C56.9913 81.016 56.5793 81.092 56.2433 81.18C55.9073 81.268 55.6353 81.372 55.4273 81.492C55.2273 81.612 55.0833 81.752 54.9953 81.912C54.9073 82.064 54.8633 82.232 54.8633 82.416ZM60.3199 78.168H61.1359L61.2199 79.224H61.2559C61.4559 78.856 61.6959 78.564 61.9759 78.348C62.2639 78.132 62.5759 78.024 62.9119 78.024C63.1439 78.024 63.3519 78.064 63.5359 78.144L63.3439 79.008C63.2479 78.976 63.1599 78.952 63.0799 78.936C62.9999 78.92 62.8999 78.912 62.7799 78.912C62.5319 78.912 62.2719 79.012 61.9999 79.212C61.7359 79.412 61.5039 79.76 61.3039 80.256V84H60.3199V78.168ZM64.6481 78.972H63.7841V78.228L64.6961 78.168L64.8161 76.536H65.6441V78.168H67.2161V78.972H65.6441V82.212C65.6441 82.572 65.7081 82.852 65.8361 83.052C65.9721 83.244 66.2081 83.34 66.5441 83.34C66.6481 83.34 66.7601 83.324 66.8801 83.292C67.0001 83.26 67.1081 83.224 67.2041 83.184L67.3961 83.928C67.2361 83.984 67.0601 84.032 66.8681 84.072C66.6841 84.12 66.5001 84.144 66.3161 84.144C66.0041 84.144 65.7401 84.096 65.5241 84C65.3161 83.904 65.1441 83.772 65.0081 83.604C64.8801 83.436 64.7881 83.232 64.7321 82.992C64.6761 82.752 64.6481 82.488 64.6481 82.2V78.972Z" fill="white"/>
<rect x="330" y="67" width="47" height="27" rx="5" fill="#D21B9A"/>
<path d="M341.044 76.128H343.012C344.228 76.128 345.152 76.464 345.784 77.136C346.416 77.808 346.732 78.772 346.732 80.028C346.732 80.652 346.652 81.212 346.492 81.708C346.332 82.196 346.096 82.612 345.784 82.956C345.472 83.292 345.088 83.552 344.632 83.736C344.176 83.912 343.652 84 343.06 84H341.044V76.128ZM342.94 83.184C343.868 83.184 344.56 82.908 345.016 82.356C345.472 81.804 345.7 81.028 345.7 80.028C345.7 79.028 345.472 78.264 345.016 77.736C344.56 77.208 343.868 76.944 342.94 76.944H342.052V83.184H342.94ZM347.9 81.096C347.9 80.608 347.972 80.176 348.116 79.8C348.268 79.416 348.468 79.092 348.716 78.828C348.964 78.564 349.248 78.364 349.568 78.228C349.896 78.092 350.24 78.024 350.6 78.024C350.96 78.024 351.3 78.092 351.62 78.228C351.948 78.364 352.236 78.564 352.484 78.828C352.732 79.092 352.928 79.416 353.072 79.8C353.224 80.176 353.3 80.608 353.3 81.096C353.3 81.576 353.224 82.008 353.072 82.392C352.928 82.768 352.732 83.088 352.484 83.352C352.236 83.608 351.948 83.804 351.62 83.94C351.3 84.076 350.96 84.144 350.6 84.144C350.24 84.144 349.896 84.076 349.568 83.94C349.248 83.804 348.964 83.608 348.716 83.352C348.468 83.088 348.268 82.768 348.116 82.392C347.972 82.008 347.9 81.576 347.9 81.096ZM348.92 81.096C348.92 81.432 348.96 81.736 349.04 82.008C349.12 82.28 349.232 82.516 349.376 82.716C349.528 82.908 349.708 83.06 349.916 83.172C350.124 83.276 350.352 83.328 350.6 83.328C350.848 83.328 351.076 83.276 351.284 83.172C351.492 83.06 351.668 82.908 351.812 82.716C351.964 82.516 352.08 82.28 352.16 82.008C352.24 81.736 352.28 81.432 352.28 81.096C352.28 80.76 352.24 80.456 352.16 80.184C352.08 79.904 351.964 79.664 351.812 79.464C351.668 79.264 351.492 79.112 351.284 79.008C351.076 78.896 350.848 78.84 350.6 78.84C350.352 78.84 350.124 78.896 349.916 79.008C349.708 79.112 349.528 79.264 349.376 79.464C349.232 79.664 349.12 79.904 349.04 80.184C348.96 80.456 348.92 80.76 348.92 81.096ZM354.836 78.168H355.652L355.736 79.008H355.772C356.052 78.728 356.344 78.496 356.648 78.312C356.96 78.12 357.32 78.024 357.728 78.024C358.344 78.024 358.792 78.216 359.072 78.6C359.36 78.984 359.504 79.552 359.504 80.304V84H358.52V80.436C358.52 79.884 358.432 79.488 358.256 79.248C358.08 79 357.8 78.876 357.416 78.876C357.112 78.876 356.844 78.952 356.612 79.104C356.38 79.256 356.116 79.48 355.82 79.776V84H354.836V78.168ZM360.966 81.096C360.966 80.616 361.038 80.188 361.182 79.812C361.334 79.428 361.53 79.104 361.77 78.84C362.018 78.576 362.298 78.376 362.61 78.24C362.922 78.096 363.246 78.024 363.582 78.024C363.95 78.024 364.278 78.088 364.566 78.216C364.862 78.344 365.106 78.528 365.298 78.768C365.498 79.008 365.65 79.296 365.754 79.632C365.858 79.968 365.91 80.344 365.91 80.76C365.91 80.976 365.898 81.156 365.874 81.3H361.938C361.978 81.932 362.17 82.432 362.514 82.8C362.866 83.168 363.322 83.352 363.882 83.352C364.162 83.352 364.418 83.312 364.65 83.232C364.89 83.144 365.118 83.032 365.334 82.896L365.682 83.544C365.426 83.704 365.142 83.844 364.83 83.964C364.518 84.084 364.162 84.144 363.762 84.144C363.37 84.144 363.002 84.076 362.658 83.94C362.322 83.796 362.026 83.596 361.77 83.34C361.522 83.076 361.326 82.756 361.182 82.38C361.038 82.004 360.966 81.576 360.966 81.096ZM365.046 80.652C365.046 80.052 364.918 79.596 364.662 79.284C364.414 78.964 364.062 78.804 363.606 78.804C363.398 78.804 363.198 78.848 363.006 78.936C362.822 79.016 362.654 79.136 362.502 79.296C362.35 79.448 362.222 79.64 362.118 79.872C362.022 80.096 361.958 80.356 361.926 80.652H365.046Z" fill="white"/>
<g filter="url(#filter0_f_1247_651)">
<circle cx="211" cy="80" r="18" fill="#A212A8"/>
</g>
<path d="M222.262 79.8077C222.262 81.0842 222.237 82.3612 222.27 83.6373C222.298 84.7245 222.273 85.8118 222.311 86.8972C222.327 87.3393 222.319 87.7765 222.232 88.2023C222.121 88.7521 221.885 89.2614 221.502 89.6818C220.669 90.5942 219.668 91.2793 218.578 91.8476C217.851 92.2262 217.08 92.4818 216.294 92.6838C215.861 92.795 215.409 92.8373 214.965 92.9067C214.369 93.0002 213.776 92.9789 213.182 92.9666C212.778 92.9585 212.376 92.8845 211.974 92.8273C211.707 92.7891 211.44 92.7446 211.177 92.6933C210.758 92.6112 210.343 92.495 209.937 92.3606C209.136 92.0955 208.367 91.7509 207.637 91.326C206.749 90.809 205.935 90.1911 205.179 89.4934C204.541 88.9051 203.916 88.3036 203.32 87.6739C202.259 86.5526 201.211 85.4177 200.278 84.1834C200.139 83.9987 200.07 83.808 200.075 83.5783C200.083 83.246 200.078 82.9137 200.077 82.5814C200.071 79.7342 200.043 76.8869 200.033 74.0397C200.03 73.2934 200.009 72.5457 200.001 71.7985C200 71.7381 200 71.6777 200.002 71.6173C200.014 71.2229 200.025 71.202 200.402 71.069C201.323 70.7444 202.229 70.3835 203.141 70.0371C203.54 69.8855 203.938 69.7302 204.335 69.5741C204.497 69.5105 204.63 69.5482 204.741 69.6758C204.96 69.9254 205.183 70.1701 205.395 70.4252C205.976 71.1266 206.595 71.7944 207.19 72.4835C207.908 73.3147 208.627 74.145 209.346 74.9748C209.494 75.1455 209.643 75.3158 209.798 75.4805C209.862 75.5491 209.934 75.6485 210.044 75.5981C210.137 75.5559 210.096 75.4497 210.096 75.3721C210.097 72.9098 210.093 70.4475 210.095 67.9848C210.096 67.3905 210.008 67.479 210.606 67.2684C211.739 66.8689 212.87 66.4617 213.997 66.0477C214.24 65.9587 214.406 65.9878 214.591 66.1893C215.284 66.9425 215.998 67.6752 216.701 68.4183C217.689 69.4615 218.675 70.5065 219.66 71.5524C220.191 72.1163 220.755 72.6501 221.23 73.2639C221.69 73.859 222.017 74.5168 222.173 75.2626C222.233 75.5482 222.248 75.8292 222.248 76.1152C222.25 77.3463 222.249 78.5775 222.249 79.8086C222.254 79.8077 222.258 79.8077 222.262 79.8077ZM200.964 79.2071C200.958 79.3006 200.952 79.3451 200.952 79.39C200.95 80.7115 200.95 82.0335 200.948 83.3549C200.948 83.5297 201.017 83.6791 201.12 83.8107C201.682 84.5275 202.259 85.233 202.879 85.8989C203.607 86.6806 204.325 87.4733 205.112 88.1987C205.814 88.846 206.497 89.5134 207.291 90.054C208.028 90.5561 208.801 90.9869 209.636 91.3029C210.126 91.4881 210.623 91.6447 211.134 91.7691C211.774 91.9248 212.421 92.0206 213.072 92.0701C214.155 92.1522 215.221 92.0378 216.275 91.7636C216.844 91.6156 217.389 91.4132 217.921 91.1708C218.93 90.7114 219.82 90.0772 220.626 89.3163C221.15 88.8215 221.415 88.2168 221.427 87.5087C221.443 86.5118 221.431 85.5149 221.429 84.518C221.429 84.4399 221.443 84.3568 221.399 84.2642C221.283 84.3654 221.181 84.4517 221.081 84.5416C220.353 85.2021 219.559 85.7695 218.691 86.2321C218.074 86.5613 217.428 86.8182 216.756 87.0193C216.096 87.2168 215.425 87.3607 214.741 87.3952C213.996 87.4329 213.249 87.4347 212.502 87.3639C211.55 87.2735 210.636 87.0479 209.754 86.6938C208.398 86.1486 207.204 85.3387 206.14 84.3423C205.365 83.6164 204.613 82.8656 203.853 82.1233C203.708 81.9817 203.581 81.8215 203.433 81.6825C202.911 81.1923 202.413 80.6779 201.919 80.1604C201.619 79.8458 201.33 79.5208 200.964 79.2071ZM221.346 78.9629C221.258 78.9956 221.21 79.0559 221.162 79.1131C220.916 79.4096 220.634 79.6688 220.354 79.9316C219.873 80.3829 219.334 80.7551 218.767 81.0797C218.113 81.4533 217.406 81.7048 216.675 81.8964C216.128 82.0398 215.576 82.1547 215.019 82.2137C214.368 82.2827 213.713 82.3376 213.054 82.3217C212.103 82.2986 211.19 82.1052 210.312 81.747C209.482 81.4088 208.738 80.9231 208.038 80.3733C207.195 79.7119 206.43 78.9638 205.692 78.1893C204.882 77.3395 204.098 76.4647 203.326 75.5795C202.579 74.722 201.831 73.8649 201.082 73.0078C201.05 72.9706 201.03 72.9143 200.963 72.9252C200.959 72.9415 200.952 72.9561 200.952 72.9706C200.949 74.5418 200.948 76.1129 200.945 77.6836C200.945 77.7703 200.968 77.8434 201.029 77.9097C201.271 78.1771 201.501 78.4567 201.752 78.7159C202.464 79.4518 203.18 80.1836 203.902 80.9095C204.497 81.5069 205.104 82.092 205.703 82.6844C206.479 83.4512 207.252 84.2206 208.169 84.8258C208.797 85.2407 209.455 85.5984 210.158 85.8717C210.735 86.0959 211.321 86.2744 211.934 86.3806C212.416 86.4641 212.895 86.5476 213.386 86.5386C213.681 86.5331 213.975 86.5381 214.27 86.5354C214.413 86.534 214.561 86.5454 214.699 86.5154C215.132 86.4214 215.574 86.3888 216.006 86.283C216.667 86.1214 217.307 85.9121 217.921 85.6202C218.79 85.208 219.569 84.666 220.305 84.0486C221.009 83.4589 221.391 82.7366 221.394 81.8187C221.397 80.9503 221.395 80.0814 221.393 79.213C221.393 79.1331 221.413 79.0464 221.346 78.9629ZM211 69.7493C210.962 69.8864 210.974 70.0067 210.974 70.1243C210.975 71.9365 210.977 73.7482 210.979 75.5604C210.98 75.8614 211.038 75.9322 211.341 75.9599C211.605 75.984 211.861 76.0475 212.12 76.097C212.77 76.2205 213.422 76.3308 214.071 76.4616C214.239 76.4956 214.405 76.5519 214.578 76.5623C214.689 76.5691 214.755 76.5501 214.785 76.4189C214.852 76.1261 214.897 75.8301 214.956 75.5364C215.002 75.3103 215.044 75.0824 215.091 74.8568C215.143 74.6076 215.231 74.3293 215.016 74.105C214.443 73.5076 213.899 72.883 213.341 72.2715C212.753 71.6264 212.169 70.9777 211.579 70.3349C211.399 70.1383 211.237 69.9218 211 69.7493Z" fill="#A212A8"/>
<path d="M0 0H410V140C410 151.046 401.046 160 390 160H20C8.95431 160 0 151.046 0 140V0Z" fill="url(#paint1_linear_1247_651)"/>
<defs>
<filter id="filter0_f_1247_651" x="133" y="2" width="156" height="156" filterUnits="userSpaceOnUse" color-interpolation-filters="sRGB">
<feFlood flood-opacity="0" result="BackgroundImageFix"/>
<feBlend mode="normal" in="SourceGraphic" in2="BackgroundImageFix" result="shape"/>
<feGaussianBlur stdDeviation="30" result="effect1_foregroundBlur_1247_651"/>
</filter>
<linearGradient id="paint0_linear_1247_651" x1="59.5" y1="80" x2="346" y2="80" gradientUnits="userSpaceOnUse">
<stop stop-color="#222222"/>
<stop offset="1" stop-color="#6C0E4F"/>
</linearGradient>
<linearGradient id="paint1_linear_1247_651" x1="205" y1="103.2" x2="205" y2="160" gradientUnits="userSpaceOnUse">
<stop stop-color="#121316" stop-opacity="0"/>
<stop offset="1" stop-color="#121316"/>
</linearGradient>
</defs>
</svg>
