<svg width="136" height="28" viewBox="0 0 136 28" fill="none" xmlns="http://www.w3.org/2000/svg">
<path d="M29.6946 7.51226H32.7136V15.0084C32.7136 16.3228 32.9121 17.2402 33.3092 17.7605C33.7062 18.2808 34.2813 18.5409 35.0343 18.5409C35.7873 18.5409 36.3692 18.2808 36.78 17.7605C37.2044 17.2402 37.4167 16.3228 37.4167 15.0084V7.51226H40.333V14.7004C40.333 16.9458 39.8812 18.582 38.9775 19.6088C38.0875 20.6357 36.7731 21.1492 35.0343 21.1492C33.2955 21.1492 31.9674 20.6357 31.05 19.6088C30.1464 18.582 29.6946 16.9458 29.6946 14.7004V7.51226ZM42.7376 10.7161H45.2021L45.4075 12.01H45.4897C45.9278 11.5992 46.407 11.2432 46.9273 10.942C47.4476 10.6271 48.0568 10.4697 48.7551 10.4697C49.8641 10.4697 50.6651 10.8325 51.158 11.5581C51.6646 12.2838 51.9179 13.2901 51.9179 14.5772V20.9027H48.8989V14.9674C48.8989 14.228 48.7962 13.7214 48.5908 13.4476C48.3991 13.1738 48.0842 13.0368 47.6461 13.0368C47.2627 13.0368 46.9341 13.1258 46.6603 13.3038C46.3865 13.4681 46.0852 13.7077 45.7566 14.0226V20.9027H42.7376V10.7161ZM52.9913 10.7161H56.0308L57.3452 15.5219C57.4822 16.0285 57.6122 16.5488 57.7355 17.0827C57.8724 17.603 58.0093 18.1301 58.1462 18.6641H58.2284C58.3516 18.1301 58.4748 17.603 58.598 17.0827C58.735 16.5488 58.8719 16.0285 59.0088 15.5219L60.3437 10.7161H63.2395L59.9124 20.9027H56.4211L52.9913 10.7161ZM63.6631 15.8094C63.6631 14.9879 63.8 14.2486 64.0738 13.5914C64.3477 12.9205 64.7037 12.3591 65.1418 11.9073C65.5936 11.4418 66.1071 11.0858 66.6821 10.8393C67.2572 10.5929 67.8527 10.4697 68.4689 10.4697C69.1945 10.4697 69.8243 10.5929 70.3583 10.8393C70.906 11.0858 71.3578 11.4281 71.7138 11.8662C72.0835 12.3043 72.3573 12.8246 72.5353 13.4271C72.7133 14.0158 72.8023 14.6593 72.8023 15.3576C72.8023 15.6314 72.7886 15.8847 72.7612 16.1175C72.7338 16.3365 72.7064 16.5077 72.6791 16.6309H66.5794C66.7163 17.4113 67.0176 17.9795 67.4831 18.3355C67.9623 18.6778 68.5442 18.849 69.2288 18.849C69.9544 18.849 70.6869 18.623 71.4263 18.1712L72.4326 19.9991C71.9123 20.355 71.3304 20.6357 70.6869 20.8411C70.0571 21.0465 69.4341 21.1492 68.818 21.1492C68.0924 21.1492 67.4146 21.0328 66.7848 20.8C66.155 20.5536 65.6073 20.2044 65.1418 19.7526C64.6763 19.2871 64.3135 18.7257 64.0533 18.0685C63.7932 17.4113 63.6631 16.6583 63.6631 15.8094ZM70.2351 14.762C70.2351 14.1733 70.105 13.694 69.8449 13.3244C69.5847 12.9547 69.1466 12.7699 68.5305 12.7699C68.0513 12.7699 67.6268 12.9342 67.2572 13.2628C66.9012 13.5777 66.6684 14.0774 66.5589 14.762H70.2351ZM75.9769 9.21687C75.4703 9.21687 75.0527 9.07311 74.7241 8.78558C74.3955 8.48437 74.2312 8.101 74.2312 7.63548C74.2312 7.16997 74.3955 6.79345 74.7241 6.50592C75.0527 6.21839 75.4703 6.07463 75.9769 6.07463C76.4972 6.07463 76.9148 6.21839 77.2297 6.50592C77.5583 6.79345 77.7226 7.16997 77.7226 7.63548C77.7226 8.101 77.5583 8.48437 77.2297 8.78558C76.9148 9.07311 76.4972 9.21687 75.9769 9.21687ZM74.4777 10.7161H77.4967V20.9027H74.4777V10.7161ZM79.7428 6.50592H82.7619V17.8632C82.7619 18.1781 82.8166 18.3971 82.9262 18.5204C83.0494 18.6436 83.1726 18.7052 83.2958 18.7052C83.3643 18.7052 83.4191 18.7052 83.4601 18.7052C83.5149 18.7052 83.5834 18.6915 83.6655 18.6641L84.0352 20.9027C83.8709 20.9712 83.6587 21.0259 83.3985 21.067C83.1521 21.1218 82.8577 21.1492 82.5154 21.1492C81.9951 21.1492 81.557 21.067 81.201 20.9027C80.845 20.7384 80.5575 20.5125 80.3384 20.225C80.1331 19.9238 79.9824 19.5678 79.8866 19.157C79.7908 18.7326 79.7428 18.2602 79.7428 17.7399V6.50592ZM85.7631 6.28001H87.4471V10.2643L87.4061 12.0716C87.8579 11.6745 88.3508 11.3459 88.8848 11.0858C89.4187 10.812 89.9664 10.675 90.5278 10.675C91.1713 10.675 91.7395 10.7983 92.2324 11.0447C92.7253 11.2775 93.136 11.6198 93.4646 12.0716C93.8069 12.5097 94.0602 13.0437 94.2245 13.6735C94.4025 14.2896 94.4915 14.9811 94.4915 15.7478C94.4915 16.5967 94.3751 17.3566 94.1424 18.0275C93.9096 18.6984 93.5947 19.2666 93.1976 19.7321C92.8006 20.1976 92.3419 20.5536 91.8216 20.8C91.3013 21.0328 90.7537 21.1492 90.1786 21.1492C89.7131 21.1492 89.227 21.0465 88.7205 20.8411C88.2276 20.622 87.762 20.314 87.3239 19.9169H87.2623L87.1185 20.9027H85.7631V6.28001ZM87.4471 18.6847C87.8853 19.068 88.3166 19.3419 88.741 19.5062C89.1791 19.6568 89.5625 19.7321 89.8911 19.7321C90.3018 19.7321 90.6784 19.6431 91.0207 19.4651C91.3766 19.2734 91.6779 19.0133 91.9243 18.6847C92.1844 18.3424 92.383 17.9248 92.5199 17.4319C92.6705 16.939 92.7458 16.3845 92.7458 15.7683C92.7458 15.2207 92.6979 14.7209 92.602 14.2691C92.5062 13.8173 92.3487 13.4339 92.1297 13.119C91.9243 12.7904 91.6505 12.5371 91.3082 12.3591C90.9796 12.1811 90.5825 12.0921 90.117 12.0921C89.3092 12.0921 88.4192 12.5439 87.4471 13.4476V18.6847ZM96.1281 10.9215H97.5246L97.6684 12.7288H97.73C98.0723 12.099 98.483 11.5992 98.9623 11.2295C99.4552 10.8599 99.9891 10.675 100.564 10.675C100.961 10.675 101.317 10.7435 101.632 10.8804L101.304 12.3591C101.139 12.3043 100.989 12.2633 100.852 12.2359C100.715 12.2085 100.544 12.1948 100.338 12.1948C99.9138 12.1948 99.4688 12.366 99.0033 12.7082C98.5515 13.0505 98.1544 13.6461 97.8122 14.495V20.9027H96.1281V10.9215ZM101.823 18.315C101.823 17.2197 102.309 16.3845 103.281 15.8094C104.267 15.2207 105.828 14.8099 107.964 14.5772C107.964 14.2623 107.929 13.9542 107.861 13.653C107.806 13.3518 107.697 13.0848 107.532 12.852C107.382 12.6193 107.176 12.4344 106.916 12.2975C106.656 12.1469 106.321 12.0716 105.91 12.0716C105.321 12.0716 104.773 12.1811 104.267 12.4002C103.774 12.6193 103.329 12.8657 102.932 13.1395L102.254 11.9689C102.72 11.6677 103.288 11.3802 103.959 11.1063C104.63 10.8188 105.369 10.675 106.177 10.675C107.395 10.675 108.279 11.0516 108.826 11.8046C109.374 12.5439 109.648 13.5366 109.648 14.7825V20.9027H108.251L108.107 19.7115H108.066C107.587 20.1086 107.067 20.4509 106.505 20.7384C105.958 21.0122 105.376 21.1492 104.76 21.1492C103.911 21.1492 103.206 20.9027 102.644 20.4098C102.097 19.9169 101.823 19.2186 101.823 18.315ZM103.486 18.1918C103.486 18.7668 103.651 19.1776 103.979 19.424C104.322 19.6705 104.739 19.7937 105.232 19.7937C105.711 19.7937 106.163 19.6842 106.588 19.4651C107.026 19.2323 107.484 18.8969 107.964 18.4587V15.6862C107.128 15.7957 106.423 15.9258 105.848 16.0764C105.273 16.227 104.808 16.405 104.452 16.6104C104.109 16.8157 103.863 17.0554 103.712 17.3292C103.562 17.5893 103.486 17.8769 103.486 18.1918ZM111.182 10.9215H112.579L112.723 12.3591H112.784C113.263 11.8799 113.763 11.4828 114.283 11.1679C114.817 10.8393 115.433 10.675 116.132 10.675C117.186 10.675 117.953 11.0036 118.432 11.6608C118.925 12.318 119.171 13.2901 119.171 14.5772V20.9027H117.487V14.8031C117.487 13.8583 117.337 13.1806 117.035 12.7699C116.734 12.3454 116.255 12.1332 115.598 12.1332C115.078 12.1332 114.619 12.2633 114.222 12.5234C113.825 12.7836 113.373 13.1669 112.866 13.6735V20.9027H111.182V10.9215ZM120.052 15.9326C120.052 15.1248 120.168 14.3992 120.401 13.7557C120.647 13.0985 120.969 12.5439 121.366 12.0921C121.763 11.6403 122.222 11.2912 122.742 11.0447C123.263 10.7983 123.81 10.675 124.385 10.675C124.96 10.675 125.46 10.7777 125.885 10.9831C126.309 11.1885 126.74 11.4692 127.178 11.8251L127.096 10.1205V6.28001H128.801V20.9027H127.404L127.261 19.7321H127.199C126.802 20.1154 126.343 20.4509 125.823 20.7384C125.316 21.0122 124.769 21.1492 124.18 21.1492C122.92 21.1492 121.914 20.6973 121.161 19.7937C120.422 18.89 120.052 17.603 120.052 15.9326ZM121.798 15.9121C121.798 17.117 122.037 18.0548 122.516 18.7257C122.996 19.3966 123.673 19.7321 124.55 19.7321C125.015 19.7321 125.453 19.6225 125.864 19.4035C126.275 19.1707 126.685 18.8216 127.096 18.3561V13.1395C126.672 12.7562 126.261 12.4892 125.864 12.3386C125.481 12.1743 125.084 12.0921 124.673 12.0921C124.276 12.0921 123.899 12.188 123.543 12.3796C123.201 12.5576 122.9 12.8178 122.64 13.1601C122.379 13.4887 122.174 13.8857 122.023 14.3512C121.873 14.8168 121.798 15.337 121.798 15.9121Z" fill="white"/>
<path d="M22.7624 14.2753C22.7624 15.5518 22.7375 16.8288 22.7701 18.1049C22.7983 19.1921 22.7729 20.2794 22.8114 21.3648C22.8273 21.8069 22.8187 22.2441 22.7325 22.6699C22.6208 23.2197 22.3852 23.729 22.0016 24.1494C21.1695 25.0618 20.1676 25.7469 19.0776 26.3152C18.3513 26.6938 17.5804 26.9494 16.7937 27.1514C16.3607 27.2626 15.909 27.3048 15.4654 27.3743C14.8689 27.4678 14.2761 27.4465 13.6823 27.4342C13.2783 27.426 12.876 27.3521 12.4743 27.2949C12.2074 27.2567 11.9395 27.2122 11.6767 27.1609C11.2577 27.0788 10.8432 26.9626 10.4374 26.8282C9.63612 26.5631 8.86711 26.2185 8.13714 25.7936C7.24874 25.2765 6.43478 24.6587 5.67894 23.961C5.04112 23.3726 4.41602 22.7711 3.81996 22.1415C2.7586 21.0202 1.71131 19.8853 0.778421 18.651C0.639055 18.4662 0.569599 18.2756 0.575046 18.0459C0.583217 17.7136 0.57777 17.3813 0.576862 17.049C0.570506 14.2017 0.542815 11.3545 0.532828 8.50727C0.530104 7.76096 0.509222 7.01329 0.500596 6.26607C0.499688 6.20569 0.499688 6.14532 0.501504 6.08494C0.513761 5.69045 0.52511 5.66957 0.901898 5.53656C1.82253 5.21197 2.72909 4.85108 3.6411 4.5047C4.04014 4.35308 4.43826 4.19783 4.83548 4.04167C4.99709 3.97811 5.12964 4.01579 5.24132 4.14335C5.45967 4.39303 5.68348 4.63771 5.89502 4.89284C6.47609 5.59421 7.0953 6.26198 7.68999 6.95109C8.40815 7.78229 9.12723 8.61259 9.8463 9.44243C9.9943 9.61312 10.1432 9.78335 10.298 9.94814C10.3625 10.0167 10.4337 10.1161 10.5445 10.0657C10.6367 10.0235 10.5962 9.91727 10.5962 9.83964C10.5972 7.37736 10.5931 4.91508 10.5953 2.45235C10.5958 1.85812 10.5082 1.94664 11.106 1.736C12.2391 1.33652 13.3695 0.929316 14.4971 0.515304C14.74 0.426328 14.9062 0.455382 15.0914 0.65694C15.7837 1.41006 16.4982 2.14275 17.2014 2.88588C18.1892 3.92908 19.1752 4.9741 20.1599 6.02002C20.6905 6.58384 21.2553 7.1177 21.7301 7.73145C22.19 8.32659 22.5173 8.98438 22.673 9.73024C22.7329 10.0158 22.7479 10.2968 22.7483 10.5828C22.7502 11.8139 22.7493 13.0451 22.7493 14.2762C22.7542 14.2753 22.7583 14.2753 22.7624 14.2753ZM1.4639 13.6747C1.45755 13.7682 1.45165 13.8127 1.45165 13.8576C1.45028 15.1791 1.45028 16.501 1.44847 17.8225C1.44801 17.9973 1.51656 18.1467 1.61961 18.2783C2.18162 18.9951 2.75906 19.7006 3.37917 20.3665C4.10687 21.1482 4.82458 21.9408 5.61175 22.6663C6.31403 23.3136 6.99724 23.9809 7.79077 24.5216C8.52755 25.0237 9.3011 25.4545 10.1359 25.7705C10.6258 25.9557 11.1228 26.1123 11.634 26.2367C12.2736 26.3924 12.9205 26.4882 13.5724 26.5376C14.6547 26.6198 15.7215 26.5054 16.7747 26.2312C17.3439 26.0832 17.8887 25.8808 18.4207 25.6384C19.4303 25.1789 20.3201 24.5448 21.1259 23.7839C21.6498 23.2891 21.9153 22.6844 21.9267 21.9763C21.9426 20.9794 21.9308 19.9825 21.9289 18.9856C21.9289 18.9075 21.943 18.8244 21.899 18.7318C21.7828 18.833 21.6806 18.9193 21.5812 19.0092C20.8531 19.6697 20.0591 20.2371 19.1911 20.6997C18.5737 21.0288 17.9277 21.2858 17.2559 21.4869C16.5958 21.6844 15.9253 21.8283 15.2412 21.8628C14.4962 21.9004 13.7495 21.9023 13.0018 21.8314C12.0503 21.7411 11.1356 21.5155 10.2544 21.1614C8.89752 20.6162 7.70361 19.8063 6.63952 18.8099C5.86461 18.084 5.11285 17.3332 4.35337 16.5909C4.2081 16.4493 4.08099 16.2891 3.933 16.1501C3.41094 15.6599 2.9134 15.1455 2.41904 14.628C2.11942 14.3134 1.8298 13.9884 1.4639 13.6747ZM21.8459 13.4305C21.7578 13.4631 21.7101 13.5235 21.6625 13.5807C21.4164 13.8772 21.1341 14.1364 20.854 14.3992C20.3732 14.8505 19.8344 15.2227 19.2669 15.5473C18.6128 15.9209 17.9064 16.1724 17.1746 16.364C16.628 16.5074 16.0765 16.6223 15.5195 16.6813C14.868 16.7503 14.213 16.8052 13.5543 16.7893C12.6028 16.7662 11.6903 16.5728 10.8119 16.2146C9.98249 15.8764 9.23845 15.3907 8.53753 14.8409C7.69498 14.1795 6.93006 13.4314 6.19191 12.6569C5.38159 11.8071 4.59805 10.9323 3.82632 10.0471C3.07864 9.18957 2.33052 8.33249 1.58239 7.47542C1.55016 7.43819 1.52973 7.3819 1.46345 7.3928C1.45891 7.40914 1.45165 7.42367 1.45165 7.43819C1.44938 9.00935 1.44756 10.5805 1.44529 12.1512C1.44529 12.2379 1.46844 12.311 1.52882 12.3773C1.77123 12.6447 2.00094 12.9243 2.25198 13.1835C2.96379 13.9194 3.67969 14.6512 4.40194 15.377C4.99663 15.9745 5.60358 16.5596 6.20326 17.152C6.97908 17.9188 7.75218 18.6882 8.66873 19.2934C9.29701 19.7083 9.9548 20.066 10.658 20.3393C11.235 20.5635 11.8215 20.7419 12.4339 20.8482C12.916 20.9317 13.3949 21.0152 13.8861 21.0061C14.1807 21.0007 14.4754 21.0057 14.77 21.003C14.9134 21.0016 15.061 21.013 15.1994 20.983C15.632 20.889 16.0737 20.8563 16.5064 20.7506C17.1673 20.589 17.807 20.3797 18.4212 20.0878C19.2896 19.6756 20.0686 19.1336 20.8054 18.5162C21.5095 17.9265 21.8908 17.2042 21.894 16.2863C21.8967 15.4179 21.8949 14.549 21.8926 13.6806C21.8931 13.6007 21.9131 13.514 21.8459 13.4305ZM11.5001 4.21689C11.4624 4.35399 11.4738 4.47429 11.4738 4.59186C11.4747 6.40407 11.4769 8.21583 11.4792 10.028C11.4797 10.329 11.5382 10.3998 11.8406 10.4275C12.1048 10.4516 12.3608 10.5151 12.6196 10.5646C13.2696 10.6881 13.922 10.7984 14.5711 10.9291C14.7391 10.9632 14.9048 11.0195 15.0782 11.0299C15.189 11.0367 15.2548 11.0177 15.2848 10.8865C15.352 10.5937 15.3973 10.2977 15.4564 10.004C15.5018 9.7779 15.5435 9.55001 15.5907 9.3244C15.6434 9.07517 15.7315 8.7969 15.5163 8.57264C14.9429 7.97523 14.3991 7.35058 13.8412 6.73909C13.2528 6.09402 12.669 5.44531 12.0789 4.8025C11.8991 4.60594 11.7371 4.3894 11.5001 4.21689Z" fill="#A212A8"/>
</svg>
